STARTFONT 2.3
FONT -FontForge-Zen Tokyo Zoo-Book-R-Normal--32-320-72-72-P-151-ISO10646-1
SIZE 32 72 72  2
FONTBOUNDINGBOX 41 41 -3 -7
COMMENT "Generated by fontforge, http://fontforge.sourceforge.net"
COMMENT "Copyright 2021 The Zen Tokyo Zoo Project Authors (https://github.com/googlefonts/zen-tokyo-zoo)"
STARTPROPERTIES 40
FOUNDRY "FontForge"
FAMILY_NAME "Zen Tokyo Zoo"
WEIGHT_NAME "Book"
SLANT "R"
SETWIDTH_NAME "Normal"
ADD_STYLE_NAME ""
PIXEL_SIZE 32
POINT_SIZE 320
RESOLUTION_X 72
RESOLUTION_Y 72
SPACING "P"
AVERAGE_WIDTH 151
CHARSET_REGISTRY "ISO10646"
CHARSET_ENCODING "1"
FONTNAME_REGISTRY ""
CHARSET_COLLECTIONS "ISO10646-1"
BITS_PER_PIXEL 2
FONT_NAME "ZenTokyoZoo-Regular"
FACE_NAME "Zen Tokyo Zoo Regular"
COPYRIGHT "Copyright 2021 The Zen Tokyo Zoo Project Authors (https://github.com/googlefonts/zen-tokyo-zoo)"
FONT_VERSION "1.002; ttfautohint (v1.8.3)"
FONT_ASCENT 26
FONT_DESCENT 6
UNDERLINE_POSITION -5
UNDERLINE_THICKNESS 1
X_HEIGHT 12
CAP_HEIGHT 24
RAW_ASCENT 800
RAW_DESCENT 200
NORM_SPACE 9
RELATIVE_WEIGHT 40
RELATIVE_SETWIDTH 50
SUPERSCRIPT_X 0
SUPERSCRIPT_Y 11
SUPERSCRIPT_SIZE 19
SUBSCRIPT_X 0
SUBSCRIPT_Y 2
SUBSCRIPT_SIZE 19
AVG_LOWERCASE_WIDTH 133
AVG_UPPERCASE_WIDTH 243
ENDPROPERTIES
CHARS 338
STARTCHAR CR
ENCODING 13
SWIDTH 600 0
DWIDTH 19 0
BBX 1 1 0 0
BITMAP
00
ENDCHAR
STARTCHAR space
ENCODING 32
SWIDTH 280 0
DWIDTH 9 0
BBX 1 1 0 0
BITMAP
00
ENDCHAR
STARTCHAR exclam
ENCODING 33
SWIDTH 196 0
DWIDTH 6 0
BBX 4 13 1 0
BITMAP
66
66
66
66
66
66
66
66
66
00
56
66
66
ENDCHAR
STARTCHAR quotedbl
ENCODING 34
SWIDTH 302 0
DWIDTH 10 0
BBX 9 4 0 9
BITMAP
6318C0
6318C0
6318C0
6318C0
ENDCHAR
STARTCHAR numbersign
ENCODING 35
SWIDTH 513 0
DWIDTH 16 0
BBX 14 13 1 0
BITMAP
00CC3200
018C0000
1999FFE0
02580000
1666FFE0
02240000
00009900
7FFDC980
0000CC00
7FFD8D80
00019800
09925800
0C926400
ENDCHAR
STARTCHAR dollar
ENCODING 36
SWIDTH 379 0
DWIDTH 12 0
BBX 10 16 1 -1
BITMAP
005000
006000
096640
7461D0
956570
C95110
975000
646E00
1A41D0
01A970
005730
896330
916060
2862C0
056500
006000
ENDCHAR
STARTCHAR percent
ENCODING 37
SWIDTH 493 0
DWIDTH 16 0
BBX 14 13 1 0
BITMAP
2F802580
ABA06200
DA64C900
CA225800
A0A66000
2F9C9000
00268000
00666F40
0089EE90
02659730
06618E30
18C0D090
26406F40
ENDCHAR
STARTCHAR ampersand
ENCODING 38
SWIDTH 487 0
DWIDTH 16 0
BBX 14 13 1 0
BITMAP
00BF8000
02AEA000
03726400
06326400
03252400
024D7000
01C64000
1C628DA0
3524D5C0
634D7240
72D72800
28058900
0BF8A340
ENDCHAR
STARTCHAR quotesingle
ENCODING 39
SWIDTH 146 0
DWIDTH 5 0
BBX 4 4 0 9
BITMAP
63
63
63
63
ENDCHAR
STARTCHAR parenleft
ENCODING 40
SWIDTH 210 0
DWIDTH 7 0
BBX 5 15 1 -1
BITMAP
0440
2580
3300
6600
9900
8900
CC00
CC00
CC00
C900
9900
9600
6300
2640
1980
ENDCHAR
STARTCHAR parenright
ENCODING 41
SWIDTH 210 0
DWIDTH 7 0
BBX 5 15 1 -1
BITMAP
4400
9900
6600
3300
2640
2580
1980
1980
1980
1980
2640
3240
6300
9600
CC00
ENDCHAR
STARTCHAR asterisk
ENCODING 42
SWIDTH 358 0
DWIDTH 11 0
BBX 9 8 1 5
BITMAP
016000
116100
180900
640280
040400
095500
162500
010400
ENDCHAR
STARTCHAR plus
ENCODING 43
SWIDTH 394 0
DWIDTH 13 0
BBX 11 9 1 2
BITMAP
018C00
018C00
018C00
B98CF4
018C00
B98CF4
018C00
018C00
018C00
ENDCHAR
STARTCHAR comma
ENCODING 44
SWIDTH 216 0
DWIDTH 7 0
BBX 5 4 1 -1
BITMAP
2640
3240
6300
9600
ENDCHAR
STARTCHAR hyphen
ENCODING 45
SWIDTH 326 0
DWIDTH 10 0
BBX 8 3 1 5
BITMAP
7FFE
0000
7FFE
ENDCHAR
STARTCHAR period
ENCODING 46
SWIDTH 176 0
DWIDTH 6 0
BBX 4 3 1 0
BITMAP
99
99
99
ENDCHAR
STARTCHAR slash
ENCODING 47
SWIDTH 298 0
DWIDTH 10 0
BBX 8 13 1 0
BITMAP
00D9
01CC
0298
0364
0730
0960
0C90
18C0
2580
3240
6300
9600
C900
ENDCHAR
STARTCHAR zero
ENCODING 48
SWIDTH 306 0
DWIDTH 10 0
BBX 8 13 1 0
BITMAP
1BE4
7BEC
DD66
CC62
CC62
CC62
CC62
CC62
CC62
CD62
D7D6
741C
1BE4
ENDCHAR
STARTCHAR one
ENCODING 49
SWIDTH 306 0
DWIDTH 10 0
BBX 8 13 1 0
BITMAP
7CC9
00C9
7CC9
00C9
00C9
00C9
00C9
00C9
00C9
00C9
00C9
00C9
00C9
ENDCHAR
STARTCHAR two
ENCODING 50
SWIDTH 299 0
DWIDTH 10 0
BBX 8 13 1 0
BITMAP
1BE0
741C
97D9
8996
01C9
0358
0D70
24D0
9240
0000
FFFD
0000
FFFD
ENDCHAR
STARTCHAR three
ENCODING 51
SWIDTH 324 0
DWIDTH 10 0
BBX 9 13 1 0
BITMAP
1BF400
740A00
D2D240
853240
000140
00A400
001A00
009300
003240
C93240
92D300
741A00
1BE400
ENDCHAR
STARTCHAR four
ENCODING 52
SWIDTH 339 0
DWIDTH 11 0
BBX 9 13 1 0
BITMAP
018900
035800
062400
096000
189000
25C000
6258C0
0018C0
FF58C0
0018C0
FF58C0
0018C0
0018C0
ENDCHAR
STARTCHAR five
ENCODING 53
SWIDTH 363 0
DWIDTH 12 0
BBX 8 13 2 0
BITMAP
BFFE
0000
BFFE
0000
9600
9650
9628
9606
0063
8973
97D6
341D
1BE4
ENDCHAR
STARTCHAR six
ENCODING 54
SWIDTH 306 0
DWIDTH 10 0
BBX 8 13 1 0
BITMAP
1BE4
7BD9
DD66
CC00
CC00
CCE0
CC1C
CC8A
CCA6
CD66
D7DA
741C
1BE0
ENDCHAR
STARTCHAR seven
ENCODING 55
SWIDTH 298 0
DWIDTH 10 0
BBX 8 13 1 0
BITMAP
BFFE
0000
0000
BFFE
0000
00CC
0198
0264
0330
0660
0960
0C90
18C0
ENDCHAR
STARTCHAR eight
ENCODING 56
SWIDTH 306 0
DWIDTH 10 0
BBX 8 13 1 0
BITMAP
1BE4
7BDD
DD66
C926
C74A
A1E0
2828
8A49
C596
CD66
97D6
741C
1BE0
ENDCHAR
STARTCHAR nine
ENCODING 57
SWIDTH 306 0
DWIDTH 10 0
BBX 8 13 1 0
BITMAP
1BE4
7BEC
DD66
C962
D662
7462
1A62
0062
0062
8962
97D6
741C
1BE4
ENDCHAR
STARTCHAR colon
ENCODING 58
SWIDTH 176 0
DWIDTH 6 0
BBX 4 8 1 0
BITMAP
99
99
99
00
00
99
99
99
ENDCHAR
STARTCHAR semicolon
ENCODING 59
SWIDTH 217 0
DWIDTH 7 0
BBX 5 9 1 -1
BITMAP
1580
1980
1980
0000
0000
2540
3240
6300
9600
ENDCHAR
STARTCHAR less
ENCODING 60
SWIDTH 450 0
DWIDTH 14 0
BBX 12 13 1 0
BITMAP
000007
00002D
0002D1
001E1A
0024B4
078240
64B400
1E1A40
01D1E0
002D1E
000692
000078
00000B
ENDCHAR
STARTCHAR equal
ENCODING 61
SWIDTH 344 0
DWIDTH 11 0
BBX 9 8 1 1
BITMAP
BFFF80
000000
BFFF80
000000
000000
BFFF80
000000
BFFF80
ENDCHAR
STARTCHAR greater
ENCODING 62
SWIDTH 450 0
DWIDTH 14 0
BBX 12 14 1 0
BITMAP
400000
A40000
1E0000
91E000
692D00
078690
00B478
000B4A
01D190
0A4900
747800
468000
2D0000
900000
ENDCHAR
STARTCHAR question
ENCODING 63
SWIDTH 346 0
DWIDTH 11 0
BBX 9 13 1 0
BITMAP
0BF800
280A00
72E240
522640
003640
00A340
028A00
032800
033000
033000
000000
022000
033000
ENDCHAR
STARTCHAR at
ENCODING 64
SWIDTH 490 0
DWIDTH 16 0
BBX 14 13 1 0
BITMAP
01BFA000
0ABFE900
2A906A40
692EA580
98BEA250
95A1A260
9660A260
956EA260
9891EE80
692E6F40
2A806000
0AAA9000
01BF9000
ENDCHAR
STARTCHAR A
ENCODING 65
SWIDTH 798 0
DWIDTH 26 0
BBX 25 25 0 0
BITMAP
000018C9000000
0000258C000000
00003259400000
00006331800000
00009A60D00000
0000CD95600000
000198C6300000
00032583240000
00063266580000
000963198C0000
000C960C990000
0018CD09660000
00259806334000
00336403258000
0066300258C000
00996001CC9000
018C97FC996000
0258C000663000
03259FFE326400
06324000259800
09663FFF98C900
0C9900000C9600
19CC0000096300
26580000073240
73240000026580
ENDCHAR
STARTCHAR B
ENCODING 66
SWIDTH 784 0
DWIDTH 25 0
BBX 23 25 1 0
BITMAP
6663FFFF9000
666000006D00
6663FFFF9740
6660000075C0
6663FFFE4DA0
666000019660
666000006230
666000006230
666000019660
6663FFFE4DA0
6660000075C0
6663FFFF8740
666000006D20
6663FFFF9164
666000001598
66600000188C
6660000008CC
6660000018CC
66600000198C
666000007258
6663FFFF9724
666000006C60
6663FFFF92C0
666000001E00
6663FFFFE400
ENDCHAR
STARTCHAR C
ENCODING 67
SWIDTH 776 0
DWIDTH 25 0
BBX 23 25 1 0
BITMAP
00005BFFA400
0006FFFFAB80
002AE4016D74
01EE1AFE4680
0374A401B880
0DD740000A00
1A8D00000000
372400000000
667000000000
996000000000
C89000000000
CC9000000000
CC9000000000
C89000000000
C96000000000
967000000000
632400000000
328D00000000
189740000A00
0D34A401B480
034A1AFE4680
01D1E4016928
00291AFE91D0
000794006E00
00005BFE9000
ENDCHAR
STARTCHAR D
ENCODING 68
SWIDTH 806 0
DWIDTH 26 0
BBX 24 25 1 0
BITMAP
6663FFA40000
6660001B9000
6663FFA46800
6660001B4A00
6663FFA4B180
6660005E1CA0
66600001D634
666000007258
6660000028CC
666000000C99
666000000966
666000000666
666000000666
666000000666
666000000966
666000000C99
6660000028CC
666000007258
66600001D724
6660005E1CA0
6663FFA4B1C0
6660001B8B00
6663FFA46800
6660001B9000
6663FFE50000
ENDCHAR
STARTCHAR E
ENCODING 69
SWIDTH 677 0
DWIDTH 22 0
BBX 20 25 1 0
BITMAP
6663FFFFFE
6660000000
6663FFFFFE
6660000000
6663FFFFFE
6660000000
6660000000
6660000000
6660000000
6660000000
6663FFFFF0
6660000000
6663FFFFF0
6660000000
6663FFFFF0
6660000000
6660000000
6660000000
6660000000
6660000000
6663FFFFFE
6660000000
6663FFFFFE
6660000000
6663FFFFFE
ENDCHAR
STARTCHAR F
ENCODING 70
SWIDTH 677 0
DWIDTH 22 0
BBX 20 25 1 0
BITMAP
6663FFFFFE
6660000000
6663FFFFFE
6660000000
6663FFFFFE
6660000000
6660000000
6660000000
6660000000
6660000000
6663FFFFF0
6660000000
6663FFFFF0
6660000000
6663FFFFF0
6660000000
6660000000
6660000000
6660000000
6660000000
6660000000
6660000000
6660000000
6660000000
6660000000
ENDCHAR
STARTCHAR G
ENCODING 71
SWIDTH 872 0
DWIDTH 28 0
BBX 26 25 1 0
BITMAP
00005BFFA40000
0006FFFFAB4000
002AE4016DB400
01EE1AFE479D00
0374A401B4A340
0DD740000A2800
1A8D0000028400
37240000008000
66700000000000
99600000000000
C8900000000000
CC90002FFFFFF0
CC900000000000
C890002FFFFFF0
C9600000000000
9670002FFFFFF0
63240000000000
328D0000028D90
189740000A28C0
0D34A401B8A240
034A1AFE468A00
01D1E4016D2800
00291AFE91D000
000794006E0000
00005BFF900000
ENDCHAR
STARTCHAR H
ENCODING 72
SWIDTH 781 0
DWIDTH 25 0
BBX 23 25 1 0
BITMAP
666000002664
666000002664
666000002664
666000002664
666000002664
666000002664
666000002664
666000002664
666000002664
666000002664
6663FFFF2664
666000002664
6663FFFF2664
666000002664
6663FFFF2664
666000002664
666000002664
666000002664
666000002664
666000002664
666000002664
666000002664
666000002664
666000002664
666000002664
ENDCHAR
STARTCHAR I
ENCODING 73
SWIDTH 262 0
DWIDTH 8 0
BBX 6 25 1 0
BITMAP
6660
6660
6660
6660
6660
6660
6660
6660
6660
6660
6660
6660
6660
6660
6660
6660
6660
6660
6660
6660
6660
6660
6660
6660
6660
ENDCHAR
STARTCHAR J
ENCODING 74
SWIDTH 674 0
DWIDTH 22 0
BBX 20 25 0 0
BITMAP
0000000633
0000000633
0000000633
0000000633
0000000633
0000000633
0000000633
0000000633
0000000633
0000000633
0000000633
0000000633
0000000633
0000000633
0000000633
6220000633
6330000663
3324000962
3258000C96
29CA4075C9
0D61BF8758
071E406D70
01D1BF91D0
0079001A00
0006FFA400
ENDCHAR
STARTCHAR K
ENCODING 75
SWIDTH 739 0
DWIDTH 24 0
BBX 22 25 1 0
BITMAP
666000025CA0
6660000A3580
666000189300
666000318900
666000972800
6660028D6000
66600724C000
66600D624000
666001CA0000
666072580000
666128300000
6661CA100000
6668A3400000
666624C00000
66628D700000
666097280000
6660358A0000
66601CA34000
66600625C000
6660028D7000
666000972800
666000358900
6660001CA340
6660000625C0
666000028D60
ENDCHAR
STARTCHAR L
ENCODING 76
SWIDTH 604 0
DWIDTH 19 0
BBX 18 25 1 0
BITMAP
6660000000
6660000000
6660000000
6660000000
6660000000
6660000000
6660000000
6660000000
6660000000
6660000000
6660000000
6660000000
6660000000
6660000000
6660000000
6660000000
6660000000
6660000000
6660000000
6660000000
6663FFFFF0
6660000000
6663FFFFF0
6660000000
6663FFFFF0
ENDCHAR
STARTCHAR M
ENCODING 77
SWIDTH 909 0
DWIDTH 29 0
BBX 27 25 1 0
BITMAP
66600000002654
66600000002654
66610000022654
66634000062654
666180000C2654
6660A000252654
66622400A32654
66625C01CA2654
6660D6035C2654
6661624A352654
666328C4972654
66618D618D2654
6660A724282654
6660358D202654
66601C97002654
66600632402654
66600258002654
666000D8002654
66600060002654
66600010002654
66600000002654
66600000002654
66600000002654
66600000002654
66600000002654
ENDCHAR
STARTCHAR N
ENCODING 78
SWIDTH 796 0
DWIDTH 25 0
BBX 23 25 1 0
BITMAP
66600000198C
66600000198C
66620000198C
66624000198C
6660D000198C
66617000198C
66632800198C
66618900198C
66609300198C
66623580198C
66625C90198C
6661CA34198C
6660625C198C
666024CA198C
66600D62598C
66600724598C
6660028D198C
66600097198C
66600032598C
66600018598C
66600009198C
66600003598C
66600001998C
66600000198C
66600000198C
ENDCHAR
STARTCHAR O
ENCODING 79
SWIDTH 894 0
DWIDTH 29 0
BBX 27 25 1 0
BITMAP
00005BFE900000
0006FFFFFE0000
002AE4016ED000
01EE1AFE86A800
0374A401B8AA00
0DD740000A2A40
1A8D0000028DC0
37240000009660
66700000006330
99600000003264
C8900000002664
CC900000002558
CC900000002558
C8900000002658
C9600000003264
96700000006324
63240000009630
328D0000028C60
189740000A24C0
0D34A401B8A240
034A1AFE468A00
01D1E401692800
00291AFE91D000
000794006E0000
00005BFE900000
ENDCHAR
STARTCHAR P
ENCODING 80
SWIDTH 743 0
DWIDTH 24 0
BBX 22 25 1 0
BITMAP
6663FFFF9000
666000006D00
6663FFFF9740
6660000075C0
6663FFFE4DA0
666000019660
666000006230
666000006230
666000019660
6663FFFE4DA0
6660000075C0
6663FFFF8740
666000006D00
6663FFFF9000
666000000000
666000000000
666000000000
666000000000
666000000000
666000000000
666000000000
666000000000
666000000000
666000000000
666000000000
ENDCHAR
STARTCHAR Q
ENCODING 81
SWIDTH 911 0
DWIDTH 29 0
BBX 27 25 1 0
BITMAP
00005BFE900000
0006FFFFFE0000
002AE4016EE000
01EE1AFE46A800
0374A401B8AA00
0DD740000A2680
1A8D0000028DC0
3724000000D660
66700000006330
99600000003264
C8900000002664
CC900000002558
CC900000002558
C8900000012658
C9600000075264
9670000025D324
632400005D7530
328D0001D75D60
1897400075D740
0D34A4015D75D0
034A1AFE475D74
01D1E40165D35C
00291AFE9134D0
000794006E0D10
00005BFF900200
ENDCHAR
STARTCHAR R
ENCODING 82
SWIDTH 745 0
DWIDTH 24 0
BBX 22 25 1 0
BITMAP
6663FFFF9000
666000006D00
6663FFFF9740
6660000075C0
6663FFFE4DA0
666000019660
666000006230
666000006230
666000019660
6663FFFE4DA0
6660000075C0
6663FFFF8740
666000006D00
6663FFFF9000
666000004000
6660018C9000
666000963000
666000632400
666000325800
66600018C900
6660000C9600
666000096300
666000032580
6660000258C0
666000018D90
ENDCHAR
STARTCHAR S
ENCODING 83
SWIDTH 660 0
DWIDTH 21 0
BBX 19 25 1 0
BITMAP
001AFF9000
01EFFFEE00
0AB50179D0
2A86FE4A70
662901A264
99A0002584
C990001400
C960000000
961E400000
6291B90000
346906E400
0906E41A00
02901691D0
001A502970
00006E4718
000001A18C
00000018CC
0040000CC8
48900018CC
9A3901B69C
6346FE4A24
24A40178A0
0A1AFE9280
02E4006D00
001BFE9000
ENDCHAR
STARTCHAR T
ENCODING 84
SWIDTH 641 0
DWIDTH 21 0
BBX 21 25 0 0
BITMAP
BFFFFFFFFF40
000000000000
BFFFFFFFFF40
000000000000
BFFFFFFFFF40
000000000000
000198C00000
000198C00000
000198C00000
000198C00000
000198C00000
000198C00000
000198C00000
000198C00000
000198C00000
000198C00000
000198C00000
000198C00000
000198C00000
000198C00000
000198C00000
000198C00000
000198C00000
000198C00000
000198C00000
ENDCHAR
STARTCHAR U
ENCODING 85
SWIDTH 702 0
DWIDTH 22 0
BBX 20 25 1 0
BITMAP
6660000663
6660000663
6660000663
6660000663
6660000663
6660000663
6660000663
6660000663
6660000663
6660000663
6660000663
6660000663
6660000663
6660000663
6660000663
6660000663
6630000662
6330000966
3258001C99
258A40758C
1CA1BF8728
062D406870
02C2BF92C0
0079005E00
0006FFA400
ENDCHAR
STARTCHAR V
ENCODING 86
SWIDTH 758 0
DWIDTH 24 0
BBX 24 25 0 0
BITMAP
632400000C99
3658000018CC
198C00002598
0CC900003264
099600006330
066300009660
03324000C990
026980018CC0
019CC0025980
00C990032640
009660063300
006330096600
0032640C9900
00259818CC00
0018CD259800
000C9A326400
000963233000
0006324A6000
0003258D9000
000258CCC000
00018C958000
0000C9624000
000096330000
000063250000
000036580000
ENDCHAR
STARTCHAR W
ENCODING 87
SWIDTH 972 0
DWIDTH 31 0
BBX 31 25 0 0
BITMAP
6330002598003224
3264002658006330
2658003324009630
198C006330009960
18CC00966000C890
0C99009964018CC0
099600CC990258C0
0663018CC6026580
0232425986032240
0326422593063300
0259833262496200
0198C63325899600
00CC9966198C8900
00C994960CC8CC00
009660C989919800
006630CC99625800
00332598A6322400
0032595863323000
0025992432656000
0018CC3026586000
000CC960198C9000
0009966018CC8000
000966100C994000
0006330009660000
0003324006630000
ENDCHAR
STARTCHAR X
ENCODING 88
SWIDTH 712 0
DWIDTH 23 0
BBX 21 25 1 0
BITMAP
632800096240
358D0018D600
189600358C00
097240A32400
0325C0C97000
028CA2589000
00D631358000
006258A30000
0025C9490000
000C971C0000
000A32940000
000358C00000
00018D600000
000496240000
000C325C0000
002528C90000
00624D630000
00D616358000
018CA2589000
0325C1C97000
097240A32400
1C9600368C00
358C0018D600
632800096340
C97000072580
ENDCHAR
STARTCHAR Y
ENCODING 89
SWIDTH 769 0
DWIDTH 25 0
BBX 24 25 0 0
BITMAP
625C00001C97
28CA0000358D
0D634000A328
0625C0018970
028CA00358D0
00D6340A3280
00625C189700
0028CA358D00
000D63472800
000725C97000
00028CA0D000
0000D6358000
0000725C0000
000010440000
000014880000
0000188C0000
0000188C0000
0000188C0000
0000188C0000
0000188C0000
0000188C0000
0000188C0000
0000188C0000
0000188C0000
0000188C0000
ENDCHAR
STARTCHAR Z
ENCODING 90
SWIDTH 708 0
DWIDTH 23 0
BBX 22 25 0 0
BITMAP
07FFFFF8CA30
000000025C90
07FFFFD62580
0000000D6300
07FFFF28C900
000000725800
000000D63400
0000028CA000
00000725C000
000009624000
000018D60000
0000328C0000
000097240000
00018D600000
000328C00000
000A72400000
001C96000000
00358D000000
00A328000000
01C970000000
0258DBFFFF00
063280000000
0CA72FFFFF00
25C900000000
6359FFFFFF00
ENDCHAR
STARTCHAR bracketleft
ENCODING 91
SWIDTH 320 0
DWIDTH 10 0
BBX 8 15 1 -1
BITMAP
667E
6600
6600
667E
6600
6600
6600
6600
6600
6600
6600
6600
667E
6600
667E
ENDCHAR
STARTCHAR backslash
ENCODING 92
SWIDTH 298 0
DWIDTH 10 0
BBX 8 13 1 0
BITMAP
C900
9600
6300
3240
2580
18C0
0C90
0960
0730
0364
0298
01CC
00D9
ENDCHAR
STARTCHAR bracketright
ENCODING 93
SWIDTH 320 0
DWIDTH 10 0
BBX 8 15 1 -1
BITMAP
7E66
0066
0066
7E66
0066
0066
0066
0066
0066
0066
0066
0066
7E66
0066
7E66
ENDCHAR
STARTCHAR asciicircum
ENCODING 94
SWIDTH 309 0
DWIDTH 10 0
BBX 6 5 2 7
BITMAP
0900
1840
3580
A490
CA30
ENDCHAR
STARTCHAR underscore
ENCODING 95
SWIDTH 472 0
DWIDTH 15 0
BBX 13 3 1 0
BITMAP
7FFFFF40
00000000
7FFFFF40
ENDCHAR
STARTCHAR grave
ENCODING 96
SWIDTH 195 0
DWIDTH 6 0
BBX 3 3 2 15
BITMAP
C0
60
24
ENDCHAR
STARTCHAR a
ENCODING 97
SWIDTH 414 0
DWIDTH 13 0
BBX 13 13 0 0
BITMAP
00734000
00978000
00C9C000
018D6000
025E3000
03272400
06225800
09518C00
0CBFC900
19809600
26806300
33FFF240
A6002980
ENDCHAR
STARTCHAR b
ENCODING 98
SWIDTH 423 0
DWIDTH 14 0
BBX 12 13 1 0
BITMAP
9BFFD0
990064
9BFF8C
9900C9
9900C9
9BFFEC
99002C
9BFF89
990096
990096
9BFF89
990028
9BFFE0
ENDCHAR
STARTCHAR c
ENCODING 99
SWIDTH 446 0
DWIDTH 14 0
BBX 12 13 1 0
BITMAP
01BFA0
0B401D
286F92
629064
960000
C90000
CC0000
C90000
960000
629064
286F92
0B401D
01BFA0
ENDCHAR
STARTCHAR d
ENCODING 100
SWIDTH 450 0
DWIDTH 14 0
BBX 13 13 1 0
BITMAP
9BFE4000
9901B400
9BFE1C00
9901D600
99007300
99002640
99002640
99002640
99007300
9901D600
9BFE1C00
9901B400
9BFE4000
ENDCHAR
STARTCHAR e
ENCODING 101
SWIDTH 363 0
DWIDTH 12 0
BBX 10 13 1 0
BITMAP
9BFFF0
990000
9BFFF0
990000
990000
9BFFC0
990000
9BFFC0
990000
990000
9BFFF0
990000
9BFFF0
ENDCHAR
STARTCHAR f
ENCODING 102
SWIDTH 365 0
DWIDTH 12 0
BBX 10 13 1 0
BITMAP
9BFFF0
990000
9BFFF0
990000
990000
9BFFC0
990000
9BFFC0
990000
990000
990000
990000
990000
ENDCHAR
STARTCHAR g
ENCODING 103
SWIDTH 483 0
DWIDTH 15 0
BBX 14 13 1 0
BITMAP
01BF9000
0B401D00
286F9240
62906800
96000000
C901FFD0
CC000000
C901FFD0
96001C90
62907580
286F8740
0B406D00
01BF9000
ENDCHAR
STARTCHAR h
ENCODING 104
SWIDTH 428 0
DWIDTH 14 0
BBX 12 13 1 0
BITMAP
990099
990099
990099
990099
990099
9BFFD9
990099
9BFFD9
990099
990099
990099
990099
990099
ENDCHAR
STARTCHAR i
ENCODING 105
SWIDTH 176 0
DWIDTH 6 0
BBX 4 13 1 0
BITMAP
99
99
99
99
99
99
99
99
99
99
99
99
99
ENDCHAR
STARTCHAR j
ENCODING 106
SWIDTH 390 0
DWIDTH 12 0
BBX 11 13 1 0
BITMAP
000324
000324
000324
000324
000324
000324
000324
000324
CC0320
9A0A30
62F8A0
290680
06F900
ENDCHAR
STARTCHAR k
ENCODING 107
SWIDTH 381 0
DWIDTH 12 0
BBX 11 13 1 0
BITMAP
990634
990CA0
9928C0
993240
999700
99C900
99B800
9A2800
9B8D00
999700
9935C0
991CA0
990624
ENDCHAR
STARTCHAR l
ENCODING 108
SWIDTH 330 0
DWIDTH 11 0
BBX 9 13 1 0
BITMAP
990000
990000
990000
990000
990000
990000
990000
990000
990000
990000
9BFFC0
990000
9BFFC0
ENDCHAR
STARTCHAR m
ENCODING 109
SWIDTH 501 0
DWIDTH 16 0
BBX 14 13 1 0
BITMAP
9A000A60
9B801E60
99D07660
9970D660
9B5A5E60
9ACB3A60
9962E660
99288660
990D0660
99010660
99000660
99000660
99000660
ENDCHAR
STARTCHAR n
ENCODING 110
SWIDTH 444 0
DWIDTH 14 0
BBX 12 13 1 0
BITMAP
9A0023
9B4023
9AC023
996023
9B2823
9B8D23
999763
9932A3
9918A3
990A63
990363
9901E3
9900A3
ENDCHAR
STARTCHAR o
ENCODING 111
SWIDTH 494 0
DWIDTH 16 0
BBX 14 13 1 0
BITMAP
01BF9000
0B406D00
286F9240
629074C0
96000990
C9000660
CC000620
C9000660
96000D90
629074C0
286F9240
0B402D00
01BFA000
ENDCHAR
STARTCHAR p
ENCODING 112
SWIDTH 412 0
DWIDTH 13 0
BBX 12 13 1 0
BITMAP
9BFFD0
990064
9BFF4C
9900C9
9900C9
9BFF4C
990064
9BFF90
990000
990000
990000
990000
990000
ENDCHAR
STARTCHAR q
ENCODING 113
SWIDTH 494 0
DWIDTH 16 0
BBX 14 13 1 0
BITMAP
01BF9000
0B406D00
286F9240
629074C0
96000D90
C9000660
CC000620
C9002A60
96005DA0
6291D7C0
286FB4D0
0B402D10
01BF9700
ENDCHAR
STARTCHAR r
ENCODING 114
SWIDTH 412 0
DWIDTH 13 0
BBX 12 13 1 0
BITMAP
9BFFD0
990064
9BFF4C
9900C9
9900C8
9BFF4C
990064
9BFFD0
9918C0
9909A0
990630
990324
990258
ENDCHAR
STARTCHAR s
ENCODING 115
SWIDTH 379 0
DWIDTH 12 0
BBX 10 13 1 0
BITMAP
06F900
2902C0
92F960
C90610
CA4000
61B900
1E4680
01B860
000630
890730
96F970
3802D0
06FE00
ENDCHAR
STARTCHAR t
ENCODING 116
SWIDTH 349 0
DWIDTH 11 0
BBX 11 13 0 0
BITMAP
BFFFF8
000000
BFFFF8
00CC00
00CC00
00CC00
00CC00
00CC00
00CC00
00CC00
00CC00
00CC00
00CC00
ENDCHAR
STARTCHAR u
ENCODING 117
SWIDTH 400 0
DWIDTH 13 0
BBX 11 13 1 0
BITMAP
990258
990258
990258
990258
990258
990258
990258
990258
990254
574724
31B970
1D01D0
06FE00
ENDCHAR
STARTCHAR v
ENCODING 118
SWIDTH 394 0
DWIDTH 13 0
BBX 12 13 0 0
BITMAP
A60033
730066
364099
2980CC
1CC198
0D9264
0A6330
073A60
036D90
029CC0
01CD80
00DB40
006700
ENDCHAR
STARTCHAR w
ENCODING 119
SWIDTH 521 0
DWIDTH 17 0
BBX 17 13 0 0
BITMAP
9603303240
6306306300
3309746600
2649B49900
258CD8C900
18D8CD8C00
0CA5CA5800
09B2D76400
0673673000
0636337000
032A32A000
026D25D000
019C18C000
ENDCHAR
STARTCHAR x
ENCODING 120
SWIDTH 369 0
DWIDTH 12 0
BBX 12 13 0 0
BITMAP
32425C
28C324
0DA960
063C90
035980
01CB40
00D700
02B240
0328C0
097CA0
189630
258358
63418D
ENDCHAR
STARTCHAR y
ENCODING 121
SWIDTH 422 0
DWIDTH 14 0
BBX 13 13 0 0
BITMAP
624035C0
25C0A340
0CA1CA00
06365C00
025E3400
01CA6000
00A3C000
00100000
00264000
00264000
00264000
00264000
00264000
ENDCHAR
STARTCHAR z
ENCODING 122
SWIDTH 409 0
DWIDTH 13 0
BBX 11 13 1 0
BITMAP
BFFFF8
000000
BFFFF8
000934
002890
00A280
028A00
062800
1C6000
71C000
BFFFF8
000000
BFFFF8
ENDCHAR
STARTCHAR braceleft
ENCODING 123
SWIDTH 443 0
DWIDTH 14 0
BBX 12 15 1 -1
BITMAP
00567E
006600
006600
00667E
006600
006600
7E6600
006600
7E6600
006600
006600
006600
00667E
006600
00567E
ENDCHAR
STARTCHAR bar
ENCODING 124
SWIDTH 196 0
DWIDTH 6 0
BBX 4 15 1 -1
BITMAP
51
66
66
66
66
66
66
66
66
66
66
66
66
66
66
ENDCHAR
STARTCHAR braceright
ENCODING 125
SWIDTH 506 0
DWIDTH 16 0
BBX 12 15 3 -1
BITMAP
7E6600
006600
006600
7E6600
006600
006600
00667E
006600
00667E
006600
006600
006600
7E6600
006600
7E6600
ENDCHAR
STARTCHAR asciitilde
ENCODING 126
SWIDTH 450 0
DWIDTH 14 0
BBX 12 4 1 4
BITMAP
6FE406
501AF9
6FE406
501AF9
ENDCHAR
STARTCHAR uni00A0
ENCODING 160
SWIDTH 280 0
DWIDTH 9 0
BBX 1 1 0 0
BITMAP
00
ENDCHAR
STARTCHAR exclamdown
ENCODING 161
SWIDTH 196 0
DWIDTH 6 0
BBX 4 13 1 -3
BITMAP
56
66
66
00
66
66
66
66
66
66
66
66
66
ENDCHAR
STARTCHAR cent
ENCODING 162
SWIDTH 305 0
DWIDTH 10 0
BBX 9 15 0 -1
BITMAP
018800
018800
000000
06FE40
1EFD40
774600
990000
9C0000
990000
774600
1EFE80
06FE40
000000
018800
018800
ENDCHAR
STARTCHAR sterling
ENCODING 163
SWIDTH 408 0
DWIDTH 13 0
BBX 12 13 0 0
BITMAP
0BF900
3802C0
62F860
110400
BFFFC0
000000
BFFFC0
000000
18C000
000000
BFFFFF
000000
BFFFFF
ENDCHAR
STARTCHAR currency
ENCODING 164
SWIDTH 401 0
DWIDTH 13 0
BBX 11 10 1 1
BITMAP
180080
490184
A1F924
16BB10
09DA40
097640
064700
61B934
840154
1800C0
ENDCHAR
STARTCHAR yen
ENCODING 165
SWIDTH 423 0
DWIDTH 14 0
BBX 13 13 0 0
BITMAP
624035C0
24C0A340
0C60CA00
06265C00
025E2400
01CA6000
00A3C000
00100000
1F266E00
00264000
1F266E00
00264000
00264000
ENDCHAR
STARTCHAR brokenbar
ENCODING 166
SWIDTH 196 0
DWIDTH 6 0
BBX 4 14 1 0
BITMAP
66
66
66
66
66
66
00
00
66
66
66
66
66
66
ENDCHAR
STARTCHAR section
ENCODING 167
SWIDTH 322 0
DWIDTH 10 0
BBX 9 15 1 -2
BITMAP
1BF800
7BEB00
9C1500
8A4000
606800
5A4600
C46640
CD1640
96E500
291900
01A300
442640
9BE300
741A00
1BE400
ENDCHAR
STARTCHAR dieresis
ENCODING 168
SWIDTH 287 0
DWIDTH 9 0
BBX 7 2 1 15
BITMAP
7874
7474
ENDCHAR
STARTCHAR copyright
ENCODING 169
SWIDTH 493 0
DWIDTH 16 0
BBX 14 14 1 0
BITMAP
00AF9000
07806D00
18000740
300001C0
A02F8090
C0A0A060
C0C00060
C1800060
C0C00060
A0A05090
302F81C0
1C000740
07906D00
00AF9000
ENDCHAR
STARTCHAR ordfeminine
ENCODING 170
SWIDTH 331 0
DWIDTH 11 0
BBX 7 6 2 7
BITMAP
2680
2750
6A60
9EA4
AAD8
5054
ENDCHAR
STARTCHAR guillemotleft
ENCODING 171
SWIDTH 298 0
DWIDTH 10 0
BBX 7 7 1 3
BITMAP
0908
7874
5154
4948
A0A0
2C28
0404
ENDCHAR
STARTCHAR logicalnot
ENCODING 172
SWIDTH 420 0
DWIDTH 13 0
BBX 11 7 1 1
BITMAP
BFFFFC
000000
BFFFFC
000000
000088
0000CC
0000CC
ENDCHAR
STARTCHAR uni00AD
ENCODING 173
SWIDTH 326 0
DWIDTH 10 0
BBX 8 3 1 5
BITMAP
7FFE
0000
7FFE
ENDCHAR
STARTCHAR registered
ENCODING 174
SWIDTH 493 0
DWIDTH 16 0
BBX 14 14 1 0
BITMAP
00AF9000
07806D00
18000740
300001C0
A09FC090
C0906060
C0906060
C09FD060
C091C060
A0909090
300001C0
1C000740
07906D00
00AF9000
ENDCHAR
STARTCHAR macron
ENCODING 175
SWIDTH 331 0
DWIDTH 11 0
BBX 8 1 1 15
BITMAP
7FFF
ENDCHAR
STARTCHAR degree
ENCODING 176
SWIDTH 298 0
DWIDTH 10 0
BBX 7 7 1 7
BITMAP
0BD0
2424
6388
55CC
6388
2424
0BD0
ENDCHAR
STARTCHAR plusminus
ENCODING 177
SWIDTH 418 0
DWIDTH 13 0
BBX 11 13 1 0
BITMAP
00C900
00C900
00C900
7CC9B8
00C900
7CC9B8
00C900
00C900
00C900
000000
BFFFFC
000000
BFFFFC
ENDCHAR
STARTCHAR uni00B2
ENCODING 178
SWIDTH 233 0
DWIDTH 7 0
BBX 5 6 1 7
BITMAP
2F40
1680
0980
1500
6A80
6A80
ENDCHAR
STARTCHAR uni00B3
ENCODING 179
SWIDTH 228 0
DWIDTH 7 0
BBX 5 6 1 7
BITMAP
2F40
0180
0600
0580
6980
2A00
ENDCHAR
STARTCHAR acute
ENCODING 180
SWIDTH 195 0
DWIDTH 6 0
BBX 3 3 2 15
BITMAP
24
60
C0
ENDCHAR
STARTCHAR uni00B5
ENCODING 181
SWIDTH 506 0
DWIDTH 16 0
BBX 15 17 1 -4
BITMAP
66018C00
66018C00
66018C00
66018C00
66018C00
66018C00
66018C00
66018C00
66019800
66025800
66BD36D0
6601D410
66BE4BE4
66000000
66000000
66000000
51000000
ENDCHAR
STARTCHAR paragraph
ENCODING 182
SWIDTH 435 0
DWIDTH 14 0
BBX 12 13 1 0
BITMAP
1BFFFD
640000
C7FFFD
CC0000
CC1989
C79989
741989
1B9989
001989
001989
001989
001989
001989
ENDCHAR
STARTCHAR periodcentered
ENCODING 183
SWIDTH 176 0
DWIDTH 6 0
BBX 4 3 1 5
BITMAP
99
99
99
ENDCHAR
STARTCHAR cedilla
ENCODING 184
SWIDTH 261 0
DWIDTH 8 0
BBX 5 6 2 -5
BITMAP
1400
3000
BE40
5180
4280
BE00
ENDCHAR
STARTCHAR uni00B9
ENCODING 185
SWIDTH 218 0
DWIDTH 7 0
BBX 5 6 1 7
BITMAP
6540
6540
0540
0540
0540
0540
ENDCHAR
STARTCHAR ordmasculine
ENCODING 186
SWIDTH 335 0
DWIDTH 11 0
BBX 8 7 1 7
BITMAP
06A4
2AA9
6917
6807
6917
2AA9
0AA4
ENDCHAR
STARTCHAR guillemotright
ENCODING 187
SWIDTH 298 0
DWIDTH 10 0
BBX 8 7 1 3
BITMAP
9090
2878
4444
9090
191D
7474
4040
ENDCHAR
STARTCHAR onequarter
ENCODING 188
SWIDTH 429 0
DWIDTH 14 0
BBX 12 13 1 0
BITMAP
DA0098
DA00A0
0A0260
0A0680
0A0940
0A1600
002500
005858
0094A0
016160
0292DA
09800A
0A02DA
ENDCHAR
STARTCHAR onehalf
ENCODING 189
SWIDTH 437 0
DWIDTH 14 0
BBX 12 13 1 0
BITMAP
DA0094
DA0160
0A0290
0A0980
0A0A00
0A2600
00687D
0094BA
01605A
025026
058044
0941FF
1601FF
ENDCHAR
STARTCHAR threequarters
ENCODING 190
SWIDTH 409 0
DWIDTH 13 0
BBX 11 13 1 0
BITMAP
7D0050
AA0160
0D0290
060980
5A0A00
AA2500
7D5800
0094A0
016250
029280
0987A8
1A07A8
250028
ENDCHAR
STARTCHAR questiondown
ENCODING 191
SWIDTH 346 0
DWIDTH 11 0
BBX 9 13 1 -2
BITMAP
033000
022000
000000
033000
033000
0A3000
28A000
318000
630000
662540
72E240
280A00
0BF800
ENDCHAR
STARTCHAR Agrave
ENCODING 192
SWIDTH 798 0
DWIDTH 26 0
BBX 25 34 0 0
BITMAP
00014400000000
0001C900000000
0000A300000000
00003280000000
000018D0000000
00000960000000
00000724000000
00000000000000
00000000000000
000018C9000000
0000258C000000
00003259400000
00006331800000
00009A60D00000
0000CD95600000
000198C6300000
00032583240000
00063266580000
000963198C0000
000C960C990000
0018CD09660000
00259806334000
00336403258000
0066300258C000
00996001CC9000
018C97FC996000
0258C000663000
03259FFE326400
06324000259800
09663FFF98C900
0C9900000C9600
19CC0000096300
26580000073240
73240000026580
ENDCHAR
STARTCHAR Aacute
ENCODING 193
SWIDTH 798 0
DWIDTH 26 0
BBX 25 34 0 0
BITMAP
00000001140000
00000006340000
0000000D600000
00000028C00000
00000032400000
00000097000000
00000189000000
00000000000000
00000000000000
000018C9000000
0000258C000000
00003259400000
00006331800000
00009A60D00000
0000CD95600000
000198C6300000
00032583240000
00063266580000
000963198C0000
000C960C990000
0018CD09660000
00259806334000
00336403258000
0066300258C000
00996001CC9000
018C97FC996000
0258C000663000
03259FFE326400
06324000259800
09663FFF98C900
0C9900000C9600
19CC0000096300
26580000073240
73240000026580
ENDCHAR
STARTCHAR Acircumflex
ENCODING 194
SWIDTH 798 0
DWIDTH 26 0
BBX 25 34 0 0
BITMAP
00000510000000
00001CA0000000
00003586000000
00009712400000
00028D28D00000
00072809700000
000D6003180000
00000000000000
00000000000000
000018C9000000
0000258C000000
00003259400000
00006331800000
00009A60D00000
0000CD95600000
000198C6300000
00032583240000
00063266580000
000963198C0000
000C960C990000
0018CD09660000
00259806334000
00336403258000
0066300258C000
00996001CC9000
018C97FC996000
0258C000663000
03259FFE326400
06324000259800
09663FFF98C900
0C9900000C9600
19CC0000096300
26580000073240
73240000026580
ENDCHAR
STARTCHAR Atilde
ENCODING 195
SWIDTH 798 0
DWIDTH 26 0
BBX 25 31 0 0
BITMAP
0000BE00080000
00028280180000
00030074740000
0006001B900000
00000000000000
00000000000000
000018C9000000
0000258C000000
00003259400000
00006331800000
00009A60D00000
0000CD95600000
000198C6300000
00032583240000
00063266580000
000963198C0000
000C960C990000
0018CD09660000
00259806334000
00336403258000
0066300258C000
00996001CC9000
018C97FC996000
0258C000663000
03259FFE326400
06324000259800
09663FFF98C900
0C9900000C9600
19CC0000096300
26580000073240
73240000026580
ENDCHAR
STARTCHAR Adieresis
ENCODING 196
SWIDTH 798 0
DWIDTH 26 0
BBX 25 34 0 0
BITMAP
0006E402F80000
001D1D0A060000
0024060C024000
0024060C024000
001D1D0A060000
0006E402F80000
00000000000000
00000000000000
00000000000000
000018C9000000
0000258C000000
00003259400000
00006331800000
00009A60D00000
0000CD95600000
000198C6300000
00032583240000
00063266580000
000963198C0000
000C960C990000
0018CD09660000
00259806334000
00336403258000
0066300258C000
00996001CC9000
018C97FC996000
0258C000663000
03259FFE326400
06324000259800
09663FFF98C900
0C9900000C9600
19CC0000096300
26580000073240
73240000026580
ENDCHAR
STARTCHAR Aring
ENCODING 197
SWIDTH 798 0
DWIDTH 26 0
BBX 25 34 0 0
BITMAP
000002F4000000
00000D0A000000
00001803000000
00002803000000
00001803000000
00000D09000000
000002F4000000
00000000000000
00000000000000
000018C9000000
0000258C000000
00003259400000
00006331800000
00009A60D00000
0000CD95600000
000198C6300000
00032583240000
00063266580000
000963198C0000
000C960C990000
0018CD09660000
00259806334000
00336403258000
0066300258C000
00996001CC9000
018C97FC996000
0258C000663000
03259FFE326400
06324000259800
09663FFF98C900
0C9900000C9600
19CC0000096300
26580000073240
73240000026580
ENDCHAR
STARTCHAR AE
ENCODING 198
SWIDTH 1078 0
DWIDTH 35 0
BBX 33 25 1 0
BITMAP
0000006332FFFFFF80
000000332000000000
0000013226FFFFFF80
000003226400000000
0000092659FFFFFF80
00000C259800000000
000025599800000000
000072598C00000000
00009618CC00000000
00018D4CCC00000000
0002588CC9BFFFF800
0006368C9900000000
00096309957FFFF800
0018C9095600000000
00358C05663FFFF800
006324066300000000
00DA30063300000000
018C97E33300000000
0329C0033240000000
06326FF32640000000
0C960002665FFFFF80
28C9BFF66580000000
32580002598FFFFF80
A72400019880000000
C960000188CFFFFF80
ENDCHAR
STARTCHAR Ccedilla
ENCODING 199
SWIDTH 776 0
DWIDTH 25 0
BBX 23 32 1 -7
BITMAP
00005BFFA400
0006FFFFAB80
002AE4016D74
01EE1AFE4680
0374A401B880
0DD740000A00
1A8D00000000
372400000000
667000000000
996000000000
C89000000000
CC9000000000
CC9000000000
C89000000000
C96000000000
967000000000
632400000000
328D00000000
189740000A00
0D34A401B480
034A1AFE4680
01D1E4016928
00291AFE91D0
000794006E00
00005BFE9000
000007000000
000009000000
00001FE40000
0000241C0000
000000090000
0000501C0000
00002FE40000
ENDCHAR
STARTCHAR Egrave
ENCODING 200
SWIDTH 677 0
DWIDTH 22 0
BBX 20 34 1 0
BITMAP
0000450000
0000970000
0000324000
000028C000
00000D6000
0000062400
0000025C00
0000000000
0000000000
6663FFFFFE
6660000000
6663FFFFFE
6660000000
6663FFFFFE
6660000000
6660000000
6660000000
6660000000
6660000000
6663FFFFF0
6660000000
6663FFFFF0
6660000000
6663FFFFF0
6660000000
6660000000
6660000000
6660000000
6660000000
6663FFFFFE
6660000000
6663FFFFFE
6660000000
6663FFFFFE
ENDCHAR
STARTCHAR Eacute
ENCODING 201
SWIDTH 677 0
DWIDTH 22 0
BBX 20 34 1 0
BITMAP
0000014400
0000072400
0000096000
000018D000
0000358000
0000A30000
0000C90000
0000000000
0000000000
6663FFFFFE
6660000000
6663FFFFFE
6660000000
6663FFFFFE
6660000000
6660000000
6660000000
6660000000
6660000000
6663FFFFF0
6660000000
6663FFFFF0
6660000000
6663FFFFF0
6660000000
6660000000
6660000000
6660000000
6660000000
6663FFFFFE
6660000000
6663FFFFFE
6660000000
6663FFFFFE
ENDCHAR
STARTCHAR Ecircumflex
ENCODING 202
SWIDTH 677 0
DWIDTH 22 0
BBX 20 34 1 0
BITMAP
0000114000
0000A34000
0001892400
0007284D00
000D70D700
0028D07280
0062401890
0000000000
0000000000
6663FFFFFE
6660000000
6663FFFFFE
6660000000
6663FFFFFE
6660000000
6660000000
6660000000
6660000000
6660000000
6663FFFFF0
6660000000
6663FFFFF0
6660000000
6663FFFFF0
6660000000
6660000000
6660000000
6660000000
6660000000
6663FFFFFE
6660000000
6663FFFFFE
6660000000
6663FFFFFE
ENDCHAR
STARTCHAR Edieresis
ENCODING 203
SWIDTH 677 0
DWIDTH 22 0
BBX 20 34 1 0
BITMAP
002F800BD0
00A0603424
00C0246008
00C0246018
00A0603424
002F800BD0
0000000000
0000000000
0000000000
6663FFFFFE
6660000000
6663FFFFFE
6660000000
6663FFFFFE
6660000000
6660000000
6660000000
6660000000
6660000000
6663FFFFF0
6660000000
6663FFFFF0
6660000000
6663FFFFF0
6660000000
6660000000
6660000000
6660000000
6660000000
6663FFFFFE
6660000000
6663FFFFFE
6660000000
6663FFFFFE
ENDCHAR
STARTCHAR Igrave
ENCODING 204
SWIDTH 262 0
DWIDTH 8 0
BBX 9 34 -2 0
BITMAP
510000
324000
28C000
0D6000
063400
025C00
00C900
000000
000000
019980
019980
019980
019980
019980
019980
019980
019980
019980
019980
019980
019980
019980
019980
019980
019980
019980
019980
019980
019980
019980
019980
019980
019980
019980
ENDCHAR
STARTCHAR Iacute
ENCODING 205
SWIDTH 262 0
DWIDTH 8 0
BBX 9 34 1 0
BITMAP
001140
006240
00D600
018C00
032800
097000
189000
000000
000000
666000
666000
666000
666000
666000
666000
666000
666000
666000
666000
666000
666000
666000
666000
666000
666000
666000
666000
666000
666000
666000
666000
666000
666000
666000
ENDCHAR
STARTCHAR Icircumflex
ENCODING 206
SWIDTH 262 0
DWIDTH 8 0
BBX 14 34 -3 0
BITMAP
00514000
00D70000
028D3400
06245C00
1C61CA00
35C06240
A34028D0
00000000
00000000
00666000
00666000
00666000
00666000
00666000
00666000
00666000
00666000
00666000
00666000
00666000
00666000
00666000
00666000
00666000
00666000
00666000
00666000
00666000
00666000
00666000
00666000
00666000
00666000
00666000
ENDCHAR
STARTCHAR Idieresis
ENCODING 207
SWIDTH 262 0
DWIDTH 8 0
BBX 15 34 -3 0
BITMAP
2F801B90
90A07474
C0309018
C0309018
A0A07474
2F801B90
00000000
00000000
00000000
00666000
00666000
00666000
00666000
00666000
00666000
00666000
00666000
00666000
00666000
00666000
00666000
00666000
00666000
00666000
00666000
00666000
00666000
00666000
00666000
00666000
00666000
00666000
00666000
00666000
ENDCHAR
STARTCHAR Eth
ENCODING 208
SWIDTH 856 0
DWIDTH 27 0
BBX 27 25 0 0
BITMAP
02265FFE900000
022640006E0000
02265FFE92D000
02264001692800
02265FFE478A00
02264001B4A340
022640000A25C0
02264000028C90
0226400000DA60
00000000006330
BFFFFFC0003324
00000000003264
BFFFFFC0002264
00000000003264
BFFFFFC0003324
00000000006330
0226400000DA60
02264000028C90
022640000A25C0
02264001B4A340
02265FFE478A00
02264001692800
02265FFE92D000
022640006E0000
02265FFE900000
ENDCHAR
STARTCHAR Ntilde
ENCODING 209
SWIDTH 796 0
DWIDTH 25 0
BBX 23 31 1 0
BITMAP
0002F8002000
000A0A006000
000C01D1D000
0018006E4000
000000000000
000000000000
66600000198C
66600000198C
66620000198C
66624000198C
6660D000198C
66617000198C
66632800198C
66618900198C
66609300198C
66623580198C
66625C90198C
6661CA34198C
6660625C198C
666024CA198C
66600D62598C
66600724598C
6660028D198C
66600097198C
66600032598C
66600018598C
66600009198C
66600003598C
66600001998C
66600000198C
66600000198C
ENDCHAR
STARTCHAR Ograve
ENCODING 210
SWIDTH 894 0
DWIDTH 29 0
BBX 27 34 1 0
BITMAP
00004500000000
00009700000000
00003280000000
000018C0000000
00000D60000000
00000724000000
0000025C000000
00000000000000
00000000000000
00005BFE900000
0006FFFFFE0000
002AE4016ED000
01EE1AFE86A800
0374A401B8AA00
0DD740000A2A40
1A8D0000028DC0
37240000009660
66700000006330
99600000003264
C8900000002664
CC900000002558
CC900000002558
C8900000002658
C9600000003264
96700000006324
63240000009630
328D0000028C60
189740000A24C0
0D34A401B8A240
034A1AFE468A00
01D1E401692800
00291AFE91D000
000794006E0000
00005BFE900000
ENDCHAR
STARTCHAR Oacute
ENCODING 211
SWIDTH 894 0
DWIDTH 29 0
BBX 27 34 1 0
BITMAP
00000001140000
0000000A300000
0000001C900000
00000025800000
00000063400000
000000CA000000
0000028C000000
00000000000000
00000000000000
00005BFE900000
0006FFFFFE0000
002AE4016ED000
01EE1AFE86A800
0374A401B8AA00
0DD740000A2A40
1A8D0000028DC0
37240000009660
66700000006330
99600000003264
C8900000002664
CC900000002558
CC900000002558
C8900000002658
C9600000003264
96700000006324
63240000009630
328D0000028C60
189740000A24C0
0D34A401B8A240
034A1AFE468A00
01D1E401692800
00291AFE91D000
000794006E0000
00005BFE900000
ENDCHAR
STARTCHAR Ocircumflex
ENCODING 212
SWIDTH 894 0
DWIDTH 29 0
BBX 27 34 1 0
BITMAP
00000114000000
00000970000000
000028D3400000
00007285C00000
0000D60C600000
00025C06280000
000A34028D0000
00000000000000
00000000000000
00005BFE900000
0006FFFFFE0000
002AE4016ED000
01EE1AFE86A800
0374A401B8AA00
0DD740000A2A40
1A8D0000028DC0
37240000009660
66700000006330
99600000003264
C8900000002664
CC900000002558
CC900000002558
C8900000002658
C9600000003264
96700000006324
63240000009630
328D0000028C60
189740000A24C0
0D34A401B8A240
034A1AFE468A00
01D1E401692800
00291AFE91D000
000794006E0000
00005BFE900000
ENDCHAR
STARTCHAR Otilde
ENCODING 213
SWIDTH 894 0
DWIDTH 29 0
BBX 27 31 1 0
BITMAP
00006E40050000
0000D1D00D0000
00024028280000
0002400BE00000
00000000000000
00000000000000
00005BFE900000
0006FFFFFE0000
002AE4016ED000
01EE1AFE86A800
0374A401B8AA00
0DD740000A2A40
1A8D0000028DC0
37240000009660
66700000006330
99600000003264
C8900000002664
CC900000002558
CC900000002558
C8900000002658
C9600000003264
96700000006324
63240000009630
328D0000028C60
189740000A24C0
0D34A401B8A240
034A1AFE468A00
01D1E401692800
00291AFE91D000
000794006E0000
00005BFE900000
ENDCHAR
STARTCHAR Odieresis
ENCODING 214
SWIDTH 894 0
DWIDTH 29 0
BBX 27 34 1 0
BITMAP
0002F801B90000
000A0A03464000
000C0306018000
000C0306018000
000A0A03474000
0002F801B90000
00000000000000
00000000000000
00000000000000
00005BFE900000
0006FFFFFE0000
002AE4016ED000
01EE1AFE86A800
0374A401B8AA00
0DD740000A2A40
1A8D0000028DC0
37240000009660
66700000006330
99600000003264
C8900000002664
CC900000002558
CC900000002558
C8900000002658
C9600000003264
96700000006324
63240000009630
328D0000028C60
189740000A24C0
0D34A401B8A240
034A1AFE468A00
01D1E401692800
00291AFE91D000
000794006E0000
00005BFE900000
ENDCHAR
STARTCHAR multiply
ENCODING 215
SWIDTH 370 0
DWIDTH 12 0
BBX 10 10 1 1
BITMAP
080100
0A0D00
6134C0
24D340
034D00
0D3400
34D180
134890
090A00
000100
ENDCHAR
STARTCHAR Oslash
ENCODING 216
SWIDTH 894 0
DWIDTH 29 0
BBX 27 26 1 -1
BITMAP
00005BFE909400
0007FFFE81DC40
002AE401437680
01EE1AFE0AA700
0774A40019CD00
0D9740003764C0
2A8D00009960A0
3324000199C630
66700007775324
996000099A2264
C890142A982658
CC902477702598
CC90A0DD902558
C891C2A8402654
C9534660003264
96090DD0006330
63182640009670
31306600028C90
1891DC000A25C0
02836401B8A340
070AA6FE468A00
0D1DD401692800
04375AFE91D000
009A94006E0000
01986BFF900000
00200000000000
ENDCHAR
STARTCHAR Ugrave
ENCODING 217
SWIDTH 702 0
DWIDTH 22 0
BBX 20 34 1 0
BITMAP
0051000000
0032400000
0028C00000
000D600000
0006340000
00025C0000
0000C90000
0000000000
0000000000
6660000663
6660000663
6660000663
6660000663
6660000663
6660000663
6660000663
6660000663
6660000663
6660000663
6660000663
6660000663
6660000663
6660000663
6660000663
6660000663
6630000662
6330000966
3258001C99
258A40758C
1CA1BF8728
062D406870
02C2BF92C0
0079005E00
0006FFA400
ENDCHAR
STARTCHAR Uacute
ENCODING 218
SWIDTH 702 0
DWIDTH 22 0
BBX 20 34 1 0
BITMAP
0000005100
000001C900
0000025800
0000063400
00000D6000
000028C000
0000324000
0000000000
0000000000
6660000663
6660000663
6660000663
6660000663
6660000663
6660000663
6660000663
6660000663
6660000663
6660000663
6660000663
6660000663
6660000663
6660000663
6660000663
6660000663
6630000662
6330000966
3258001C99
258A40758C
1CA1BF8728
062D406870
02C2BF92C0
0079005E00
0006FFA400
ENDCHAR
STARTCHAR Ucircumflex
ENCODING 219
SWIDTH 702 0
DWIDTH 22 0
BBX 20 34 1 0
BITMAP
0000450000
00025C0000
000A34D000
0018A17000
0031872800
0097018900
028D00A340
0000000000
0000000000
6660000663
6660000663
6660000663
6660000663
6660000663
6660000663
6660000663
6660000663
6660000663
6660000663
6660000663
6660000663
6660000663
6660000663
6660000663
6660000663
6630000662
6330000966
3258001C99
258A40758C
1CA1BF8728
062D406870
02C2BF92C0
0079005E00
0006FFA400
ENDCHAR
STARTCHAR Udieresis
ENCODING 220
SWIDTH 702 0
DWIDTH 22 0
BBX 20 34 1 0
BITMAP
00BE006E40
028280D1D0
0300C18060
0300C18060
028280D1D0
00BE006E40
0000000000
0000000000
0000000000
6660000663
6660000663
6660000663
6660000663
6660000663
6660000663
6660000663
6660000663
6660000663
6660000663
6660000663
6660000663
6660000663
6660000663
6660000663
6660000663
6630000662
6330000966
3258001C99
258A40758C
1CA1BF8728
062D406870
02C2BF92C0
0079005E00
0006FFA400
ENDCHAR
STARTCHAR Yacute
ENCODING 221
SWIDTH 769 0
DWIDTH 25 0
BBX 24 34 0 0
BITMAP
000000045000
00000018D000
000000358000
000000A30000
000000C90000
0000025C0000
000006240000
000000000000
000000000000
625C00001C97
28CA0000358D
0D634000A328
0625C0018970
028CA00358D0
00D6340A3280
00625C189700
0028CA358D00
000D63472800
000725C97000
00028CA0D000
0000D6358000
0000725C0000
000010440000
000014880000
0000188C0000
0000188C0000
0000188C0000
0000188C0000
0000188C0000
0000188C0000
0000188C0000
0000188C0000
0000188C0000
0000188C0000
ENDCHAR
STARTCHAR Thorn
ENCODING 222
SWIDTH 743 0
DWIDTH 24 0
BBX 22 25 1 0
BITMAP
666000000000
666000000000
666000000000
666000000000
6663FFFF9000
666000006800
666000000700
6663FFFF91C0
666000007490
6663FFFE4D60
666000019630
666000006230
666000006230
666000019660
6663FFFE4D90
666000007580
6663FFFF8700
666000006800
6663FFFF9000
666000000000
666000000000
666000000000
666000000000
666000000000
666000000000
ENDCHAR
STARTCHAR germandbls
ENCODING 223
SWIDTH 424 0
DWIDTH 14 0
BBX 12 13 1 0
BITMAP
0BFF90
340074
62FF58
99018C
99018C
992FE8
990028
992F89
990096
990096
993F89
990028
993FE0
ENDCHAR
STARTCHAR agrave
ENCODING 224
SWIDTH 414 0
DWIDTH 13 0
BBX 13 18 0 0
BITMAP
00600000
00240000
000C0000
00000000
00000000
00734000
00978000
00C9C000
018D6000
025E3000
03272400
06225800
09518C00
0CBFC900
19809600
26806300
33FFF240
A6002980
ENDCHAR
STARTCHAR aacute
ENCODING 225
SWIDTH 414 0
DWIDTH 13 0
BBX 13 18 0 0
BITMAP
00009000
00018000
00030000
00000000
00000000
00734000
00978000
00C9C000
018D6000
025E3000
03272400
06225800
09518C00
0CBFC900
19809600
26806300
33FFF240
A6002980
ENDCHAR
STARTCHAR acircumflex
ENCODING 226
SWIDTH 414 0
DWIDTH 13 0
BBX 13 18 0 0
BITMAP
00280000
00624000
01C0D000
00000000
00000000
00734000
00978000
00C9C000
018D6000
025E3000
03272400
06225800
09518C00
0CBFC900
19809600
26806300
33FFF240
A6002980
ENDCHAR
STARTCHAR atilde
ENCODING 227
SWIDTH 414 0
DWIDTH 13 0
BBX 13 17 0 0
BITMAP
01F92400
0246E000
00000000
00000000
00734000
00978000
00C9C000
018D6000
025E3000
03272400
06225800
09518C00
0CBFC900
19809600
26806300
33FFF240
A6002980
ENDCHAR
STARTCHAR adieresis
ENCODING 228
SWIDTH 414 0
DWIDTH 13 0
BBX 13 17 0 0
BITMAP
00E1E000
00E1D000
00000000
00000000
00734000
00978000
00C9C000
018D6000
025E3000
03272400
06225800
09518C00
0CBFC900
19809600
26806300
33FFF240
A6002980
ENDCHAR
STARTCHAR aring
ENCODING 229
SWIDTH 414 0
DWIDTH 13 0
BBX 13 19 0 0
BITMAP
001E0000
00314000
00314000
001E0000
00000000
00000000
00734000
00978000
00C9C000
018D6000
025E3000
03272400
06225800
09518C00
0CBFC900
19809600
26806300
33FFF240
A6002980
ENDCHAR
STARTCHAR ae
ENCODING 230
SWIDTH 593 0
DWIDTH 19 0
BBX 19 13 0 0
BITMAP
00032FFFF4
00093C0000
000C9FFFF4
0025CC0000
0072C90000
00969BFFD0
0189990000
025897FFD0
0634660000
0960660000
18FFE3FFF4
3580330000
630033FFF4
ENDCHAR
STARTCHAR ccedilla
ENCODING 231
SWIDTH 446 0
DWIDTH 14 0
BBX 12 18 1 -5
BITMAP
01BFA0
0B401D
286F92
629064
960000
C90000
CC0000
C90000
960000
629064
286F92
0B401D
01BFA0
002400
007F40
0010C0
0041C0
006E40
ENDCHAR
STARTCHAR egrave
ENCODING 232
SWIDTH 363 0
DWIDTH 12 0
BBX 10 18 1 0
BITMAP
018000
009000
007000
000000
000000
9BFFF0
990000
9BFFF0
990000
990000
9BFFC0
990000
9BFFC0
990000
990000
9BFFF0
990000
9BFFF0
ENDCHAR
STARTCHAR eacute
ENCODING 233
SWIDTH 363 0
DWIDTH 12 0
BBX 10 18 1 0
BITMAP
000340
000A00
001C00
000000
000000
9BFFF0
990000
9BFFF0
990000
990000
9BFFC0
990000
9BFFC0
990000
990000
9BFFF0
990000
9BFFF0
ENDCHAR
STARTCHAR ecircumflex
ENCODING 234
SWIDTH 363 0
DWIDTH 12 0
BBX 10 18 1 0
BITMAP
00A000
028900
060740
000000
000000
9BFFF0
990000
9BFFF0
990000
990000
9BFFC0
990000
9BFFC0
990000
990000
9BFFF0
990000
9BFFF0
ENDCHAR
STARTCHAR edieresis
ENCODING 235
SWIDTH 363 0
DWIDTH 12 0
BBX 10 17 1 0
BITMAP
078740
078740
000000
000000
9BFFF0
990000
9BFFF0
990000
990000
9BFFC0
990000
9BFFC0
990000
990000
9BFFF0
990000
9BFFF0
ENDCHAR
STARTCHAR igrave
ENCODING 236
SWIDTH 176 0
DWIDTH 6 0
BBX 5 18 0 0
BITMAP
6000
2400
0C00
0000
0000
2640
2640
2640
2640
2640
2640
2640
2640
2640
2640
2640
2640
2640
ENDCHAR
STARTCHAR iacute
ENCODING 237
SWIDTH 176 0
DWIDTH 6 0
BBX 5 18 1 0
BITMAP
0240
0600
0C00
0000
0000
9900
9900
9900
9900
9900
9900
9900
9900
9900
9900
9900
9900
9900
ENDCHAR
STARTCHAR icircumflex
ENCODING 238
SWIDTH 176 0
DWIDTH 6 0
BBX 7 18 -1 0
BITMAP
0600
1850
7034
0000
0000
0990
0990
0990
0990
0990
0990
0990
0990
0990
0990
0990
0990
0990
ENDCHAR
STARTCHAR idieresis
ENCODING 239
SWIDTH 176 0
DWIDTH 6 0
BBX 6 17 0 0
BITMAP
E1E0
E1E0
0000
0000
2640
2640
2640
2640
2640
2640
2640
2640
2640
2640
2640
2640
2640
ENDCHAR
STARTCHAR eth
ENCODING 240
SWIDTH 455 0
DWIDTH 15 0
BBX 14 13 0 0
BITMAP
25FF9000
25806D00
25FF9740
258075C0
25800C90
00000950
BFF00560
00000950
25800C90
258075C0
25FF9740
25806D00
25FF9000
ENDCHAR
STARTCHAR ntilde
ENCODING 241
SWIDTH 444 0
DWIDTH 14 0
BBX 12 17 1 0
BITMAP
02E460
051B90
000000
000000
9A0023
9B4023
9AC023
996023
9B2823
9B8D23
999763
9932A3
9918A3
990A63
990363
9901E3
9900A3
ENDCHAR
STARTCHAR ograve
ENCODING 242
SWIDTH 494 0
DWIDTH 16 0
BBX 14 18 1 0
BITMAP
00700000
00280000
000D0000
00000000
00000000
01BF9000
0B406D00
286F9240
629074C0
96000990
C9000660
CC000620
C9000660
96000D90
629074C0
286F9240
0B402D00
01BFA000
ENDCHAR
STARTCHAR oacute
ENCODING 243
SWIDTH 494 0
DWIDTH 16 0
BBX 14 18 1 0
BITMAP
0000C000
00024000
00060000
00000000
00000000
01BF9000
0B406D00
286F9240
629074C0
96000990
C9000660
CC000620
C9000660
96000D90
629074C0
286F9240
0B402D00
01BFA000
ENDCHAR
STARTCHAR ocircumflex
ENCODING 244
SWIDTH 494 0
DWIDTH 16 0
BBX 14 18 1 0
BITMAP
00180000
00718000
00D09000
00000000
00000000
01BF9000
0B406D00
286F9240
629074C0
96000990
C9000660
CC000620
C9000660
96000D90
629074C0
286F9240
0B402D00
01BFA000
ENDCHAR
STARTCHAR otilde
ENCODING 245
SWIDTH 494 0
DWIDTH 16 0
BBX 14 17 1 0
BITMAP
01B91400
0246E000
00000000
00000000
01BF9000
0B406D00
286F9240
629074C0
96000990
C9000660
CC000620
C9000660
96000D90
629074C0
286F9240
0B402D00
01BFA000
ENDCHAR
STARTCHAR odieresis
ENCODING 246
SWIDTH 494 0
DWIDTH 16 0
BBX 14 17 1 0
BITMAP
00F0E000
00A0E000
00000000
00000000
01BF9000
0B406D00
286F9240
629074C0
96000990
C9000660
CC000620
C9000660
96000D90
629074C0
286F9240
0B402D00
01BFA000
ENDCHAR
STARTCHAR divide
ENCODING 247
SWIDTH 418 0
DWIDTH 13 0
BBX 11 11 1 1
BITMAP
007800
009800
007800
000000
BFFFFC
000000
BFFFFC
000000
007800
009800
007800
ENDCHAR
STARTCHAR oslash
ENCODING 248
SWIDTH 494 0
DWIDTH 16 0
BBX 14 13 1 0
BITMAP
01BF9180
0B400700
286F1D00
629034C0
9600D5A0
C9024660
CC0A0620
C9280660
94A00D90
628074C0
061F9240
1C402D00
20BFA000
ENDCHAR
STARTCHAR ugrave
ENCODING 249
SWIDTH 400 0
DWIDTH 13 0
BBX 11 18 1 0
BITMAP
024000
00C000
006000
000000
000000
990258
990258
990258
990258
990258
990258
990258
990258
990254
574724
31B970
1D01D0
06FE00
ENDCHAR
STARTCHAR uacute
ENCODING 250
SWIDTH 400 0
DWIDTH 13 0
BBX 11 18 1 0
BITMAP
000A00
001C00
002400
000000
000000
990258
990258
990258
990258
990258
990258
990258
990258
990254
574724
31B970
1D01D0
06FE00
ENDCHAR
STARTCHAR ucircumflex
ENCODING 251
SWIDTH 400 0
DWIDTH 13 0
BBX 11 18 1 0
BITMAP
009000
024800
0A0600
000000
000000
990258
990258
990258
990258
990258
990258
990258
990258
990254
574724
31B970
1D01D0
06FE00
ENDCHAR
STARTCHAR udieresis
ENCODING 252
SWIDTH 400 0
DWIDTH 13 0
BBX 11 17 1 0
BITMAP
074B40
074B40
000000
000000
990258
990258
990258
990258
990258
990258
990258
990258
990254
574724
31B970
1D01D0
06FE00
ENDCHAR
STARTCHAR yacute
ENCODING 253
SWIDTH 422 0
DWIDTH 14 0
BBX 13 18 0 0
BITMAP
0001C000
00024000
00060000
00000000
00000000
624035C0
25C0A340
0CA1CA00
06365C00
025E3400
01CA6000
00A3C000
00100000
00264000
00264000
00264000
00264000
00264000
ENDCHAR
STARTCHAR thorn
ENCODING 254
SWIDTH 412 0
DWIDTH 13 0
BBX 12 13 1 0
BITMAP
990000
990000
990000
9BFF90
990068
9BFF8C
9900C9
9BFF8C
990068
9BFF90
990000
990000
990000
ENDCHAR
STARTCHAR ydieresis
ENCODING 255
SWIDTH 422 0
DWIDTH 14 0
BBX 13 17 0 0
BITMAP
00E1E000
00E1D000
00000000
00000000
624035C0
25C0A340
0CA1CA00
06365C00
025E3400
01CA6000
00A3C000
00100000
00264000
00264000
00264000
00264000
00264000
ENDCHAR
STARTCHAR Edotaccent
ENCODING 278
SWIDTH 677 0
DWIDTH 22 0
BBX 20 31 1 0
BITMAP
0000064000
00000F8000
00000B4000
0000000000
0000000000
0000000000
6663FFFFFE
6660000000
6663FFFFFE
6660000000
6663FFFFFE
6660000000
6660000000
6660000000
6660000000
6660000000
6663FFFFF0
6660000000
6663FFFFF0
6660000000
6663FFFFF0
6660000000
6660000000
6660000000
6660000000
6660000000
6663FFFFFE
6660000000
6663FFFFFE
6660000000
6663FFFFFE
ENDCHAR
STARTCHAR edotaccent
ENCODING 279
SWIDTH 363 0
DWIDTH 12 0
BBX 10 18 1 0
BITMAP
006400
00BC00
007800
000000
000000
9BFFF0
990000
9BFFF0
990000
990000
9BFFC0
990000
9BFFC0
990000
990000
9BFFF0
990000
9BFFF0
ENDCHAR
STARTCHAR dotlessi
ENCODING 305
SWIDTH 176 0
DWIDTH 6 0
BBX 4 13 1 0
BITMAP
99
99
99
99
99
99
99
99
99
99
99
99
99
ENDCHAR
STARTCHAR OE
ENCODING 338
SWIDTH 1221 0
DWIDTH 39 0
BBX 37 25 1 0
BITMAP
00005BFF8000BFFFFFC0
0007A400000000000000
00291BFF8000BFFFFFC0
01D2E400000000000000
035E1AFF8000BFFFFFC0
0D74A400000000000000
18D74000000000000000
325C0000000000000000
67240000000000000000
9A600000000000000000
C99000000000BFFFFD00
CC900000000000000000
CC9000000000BFFFFD00
CC900000000000000000
C99000000000BFFFFD00
9A600000000000000000
67240000000000000000
325C0000000000000000
28D74000000000000000
0D75A500000000000000
075E1AFF8000BFFFFFC0
01D2E400000000000000
00291BFF8000BFFFFFC0
00079400000000000000
00006BFF8000BFFFFFC0
ENDCHAR
STARTCHAR oe
ENCODING 339
SWIDTH 637 0
DWIDTH 20 0
BBX 19 13 1 0
BITMAP
01BFC0FFF8
0A40000000
286FC0FFF8
6290000000
9600000000
C80000FFE0
CC00000000
C80000FFE0
9600000000
6290000000
286FC0FFF8
0A40000000
01BFC0FFF8
ENDCHAR
STARTCHAR Wcircumflex
ENCODING 372
SWIDTH 972 0
DWIDTH 31 0
BBX 31 34 0 0
BITMAP
0000001140000000
000000A340000000
000001CA24000000
000003584D000000
0000097097000000
000028D031800000
0000728018A00000
0000000000000000
0000000000000000
6330002598003224
3264002658006330
2658003324009630
198C006330009960
18CC00966000C890
0C99009964018CC0
099600CC990258C0
0663018CC6026580
0232425986032240
0326422593063300
0259833262496200
0198C63325899600
00CC9966198C8900
00C994960CC8CC00
009660C989919800
006630CC99625800
00332598A6322400
0032595863323000
0025992432656000
0018CC3026586000
000CC960198C9000
0009966018CC8000
000966100C994000
0006330009660000
0003324006630000
ENDCHAR
STARTCHAR wcircumflex
ENCODING 373
SWIDTH 521 0
DWIDTH 17 0
BBX 17 18 0 0
BITMAP
0003400000
0009200000
0028180000
0000000000
0000000000
9603303240
6306306300
3309746600
2649B49900
258CD8C900
18D8CD8C00
0CA5CA5800
09B2D76400
0673673000
0636337000
032A32A000
026D25D000
019C18C000
ENDCHAR
STARTCHAR Ycircumflex
ENCODING 374
SWIDTH 769 0
DWIDTH 25 0
BBX 24 34 0 0
BITMAP
000004500000
000025C00000
0000A3490000
0001CA170000
000358358000
0009301CA000
0028900A3400
000000000000
000000000000
625C00001C97
28CA0000358D
0D634000A328
0625C0018970
028CA00358D0
00D6340A3280
00625C189700
0028CA358D00
000D63472800
000725C97000
00028CA0D000
0000D6358000
0000725C0000
000010440000
000014880000
0000188C0000
0000188C0000
0000188C0000
0000188C0000
0000188C0000
0000188C0000
0000188C0000
0000188C0000
0000188C0000
0000188C0000
ENDCHAR
STARTCHAR ycircumflex
ENCODING 375
SWIDTH 422 0
DWIDTH 14 0
BBX 13 18 0 0
BITMAP
00280000
00624000
01C0D000
00000000
00000000
624035C0
25C0A340
0CA1CA00
06365C00
025E3400
01CA6000
00A3C000
00100000
00264000
00264000
00264000
00264000
00264000
ENDCHAR
STARTCHAR Ydieresis
ENCODING 376
SWIDTH 769 0
DWIDTH 25 0
BBX 24 34 0 0
BITMAP
000BE006F400
0028280D0900
00300C180600
00300C180600
0028280D1900
000BE006E400
000000000000
000000000000
000000000000
625C00001C97
28CA0000358D
0D634000A328
0625C0018970
028CA00358D0
00D6340A3280
00625C189700
0028CA358D00
000D63472800
000725C97000
00028CA0D000
0000D6358000
0000725C0000
000010440000
000014880000
0000188C0000
0000188C0000
0000188C0000
0000188C0000
0000188C0000
0000188C0000
0000188C0000
0000188C0000
0000188C0000
0000188C0000
ENDCHAR
STARTCHAR circumflex
ENCODING 710
SWIDTH 298 0
DWIDTH 10 0
BBX 6 3 2 15
BITMAP
1C00
7180
D0A0
ENDCHAR
STARTCHAR dotaccent
ENCODING 729
SWIDTH 212 0
DWIDTH 7 0
BBX 3 3 2 15
BITMAP
64
F8
B4
ENDCHAR
STARTCHAR ring
ENCODING 730
SWIDTH 212 0
DWIDTH 7 0
BBX 4 4 1 15
BITMAP
2E
62
62
2D
ENDCHAR
STARTCHAR tilde
ENCODING 732
SWIDTH 329 0
DWIDTH 11 0
BBX 8 2 1 15
BITMAP
2F46
61BD
ENDCHAR
STARTCHAR gravecomb
ENCODING 768
SWIDTH 0 0
DWIDTH 0 0
BBX 3 3 2 15
BITMAP
C0
60
24
ENDCHAR
STARTCHAR acutecomb
ENCODING 769
SWIDTH 0 0
DWIDTH 0 0
BBX 3 3 2 15
BITMAP
24
60
C0
ENDCHAR
STARTCHAR uni0302
ENCODING 770
SWIDTH 0 0
DWIDTH 0 0
BBX 6 3 2 15
BITMAP
1C00
7180
D0A0
ENDCHAR
STARTCHAR tildecomb
ENCODING 771
SWIDTH 0 0
DWIDTH 0 0
BBX 8 2 1 15
BITMAP
2F46
61BD
ENDCHAR
STARTCHAR uni0307
ENCODING 775
SWIDTH 0 0
DWIDTH 0 0
BBX 3 3 2 15
BITMAP
64
F8
B4
ENDCHAR
STARTCHAR uni0308
ENCODING 776
SWIDTH 0 0
DWIDTH 0 0
BBX 7 2 1 15
BITMAP
7874
7474
ENDCHAR
STARTCHAR uni030A
ENCODING 778
SWIDTH 0 0
DWIDTH 0 0
BBX 4 4 1 15
BITMAP
2E
62
62
2D
ENDCHAR
STARTCHAR uni0327
ENCODING 807
SWIDTH 0 0
DWIDTH 0 0
BBX 5 6 2 -5
BITMAP
1400
3000
BE40
5180
4280
BE00
ENDCHAR
STARTCHAR Wgrave
ENCODING 7808
SWIDTH 972 0
DWIDTH 31 0
BBX 31 34 0 0
BITMAP
0000004500000000
000000A300000000
0000003280000000
00000018D0000000
0000000960000000
0000000724000000
000000025C000000
0000000000000000
0000000000000000
6330002598003224
3264002658006330
2658003324009630
198C006330009960
18CC00966000C890
0C99009964018CC0
099600CC990258C0
0663018CC6026580
0232425986032240
0326422593063300
0259833262496200
0198C63325899600
00CC9966198C8900
00C994960CC8CC00
009660C989919800
006630CC99625800
00332598A6322400
0032595863323000
0025992432656000
0018CC3026586000
000CC960198C9000
0009966018CC8000
000966100C994000
0006330009660000
0003324006630000
ENDCHAR
STARTCHAR wgrave
ENCODING 7809
SWIDTH 521 0
DWIDTH 17 0
BBX 17 18 0 0
BITMAP
0002400000
0001C00000
0000A00000
0000000000
0000000000
9603303240
6306306300
3309746600
2649B49900
258CD8C900
18D8CD8C00
0CA5CA5800
09B2D76400
0673673000
0636337000
032A32A000
026D25D000
019C18C000
ENDCHAR
STARTCHAR Wacute
ENCODING 7810
SWIDTH 972 0
DWIDTH 31 0
BBX 31 34 0 0
BITMAP
0000000144000000
0000000328000000
0000000970000000
0000001C90000000
0000002580000000
0000006340000000
000000CA00000000
0000000000000000
0000000000000000
6330002598003224
3264002658006330
2658003324009630
198C006330009960
18CC00966000C890
0C99009964018CC0
099600CC990258C0
0663018CC6026580
0232425986032240
0326422593063300
0259833262496200
0198C63325899600
00CC9966198C8900
00C994960CC8CC00
009660C989919800
006630CC99625800
00332598A6322400
0032595863323000
0025992432656000
0018CC3026586000
000CC960198C9000
0009966018CC8000
000966100C994000
0006330009660000
0003324006630000
ENDCHAR
STARTCHAR wacute
ENCODING 7811
SWIDTH 521 0
DWIDTH 17 0
BBX 17 18 0 0
BITMAP
0000A00000
0001C00000
0002400000
0000000000
0000000000
9603303240
6306306300
3309746600
2649B49900
258CD8C900
18D8CD8C00
0CA5CA5800
09B2D76400
0673673000
0636337000
032A32A000
026D25D000
019C18C000
ENDCHAR
STARTCHAR Wdieresis
ENCODING 7812
SWIDTH 972 0
DWIDTH 31 0
BBX 31 34 0 0
BITMAP
00001F800BE00000
0000607024280000
00009024300C0000
00009024300C0000
0000607028280000
00001F800BE00000
0000000000000000
0000000000000000
0000000000000000
6330002598003224
3264002658006330
2658003324009630
198C006330009960
18CC00966000C890
0C99009964018CC0
099600CC990258C0
0663018CC6026580
0232425986032240
0326422593063300
0259833262496200
0198C63325899600
00CC9966198C8900
00C994960CC8CC00
009660C989919800
006630CC99625800
00332598A6322400
0032595863323000
0025992432656000
0018CC3026586000
000CC960198C9000
0009966018CC8000
000966100C994000
0006330009660000
0003324006630000
ENDCHAR
STARTCHAR wdieresis
ENCODING 7813
SWIDTH 521 0
DWIDTH 17 0
BBX 17 17 0 0
BITMAP
001D2D0000
001D2C0000
0000000000
0000000000
9603303240
6306306300
3309746600
2649B49900
258CD8C900
18D8CD8C00
0CA5CA5800
09B2D76400
0673673000
0636337000
032A32A000
026D25D000
019C18C000
ENDCHAR
STARTCHAR uni1E9E
ENCODING 7838
SWIDTH 784 0
DWIDTH 25 0
BBX 23 25 1 0
BITMAP
6663FFFFFF40
666000000000
6663FFFFFF40
666000000000
6663FFFFFF40
666000000000
66600018D600
666000358C00
666000A32400
666000C97000
6660025C9400
666007258740
6660096355D0
666018DA1D70
6660368C9724
666000007698
66600000198C
66600000188C
66600000198C
666000007658
66607FFF9724
666000001D60
66607FFFE1C0
666000001A00
66607FFFE400
ENDCHAR
STARTCHAR Ygrave
ENCODING 7922
SWIDTH 769 0
DWIDTH 25 0
BBX 24 34 0 0
BITMAP
000011000000
000025800000
00001C900000
000009700000
000003280000
0000018C0000
000000D60000
000000000000
000000000000
625C00001C97
28CA0000358D
0D634000A328
0625C0018970
028CA00358D0
00D6340A3280
00625C189700
0028CA358D00
000D63472800
000725C97000
00028CA0D000
0000D6358000
0000725C0000
000010440000
000014880000
0000188C0000
0000188C0000
0000188C0000
0000188C0000
0000188C0000
0000188C0000
0000188C0000
0000188C0000
0000188C0000
0000188C0000
ENDCHAR
STARTCHAR ygrave
ENCODING 7923
SWIDTH 422 0
DWIDTH 14 0
BBX 13 18 0 0
BITMAP
00180000
00090000
00070000
00000000
00000000
624035C0
25C0A340
0CA1CA00
06365C00
025E3400
01CA6000
00A3C000
00100000
00264000
00264000
00264000
00264000
00264000
ENDCHAR
STARTCHAR endash
ENCODING 8211
SWIDTH 507 0
DWIDTH 16 0
BBX 14 3 1 5
BITMAP
7FFFFFE0
00000000
7FFFFFE0
ENDCHAR
STARTCHAR emdash
ENCODING 8212
SWIDTH 552 0
DWIDTH 18 0
BBX 15 3 1 5
BITMAP
7FFFFFFC
00000000
7FFFFFFC
ENDCHAR
STARTCHAR quoteleft
ENCODING 8216
SWIDTH 146 0
DWIDTH 5 0
BBX 4 4 0 9
BITMAP
60
60
63
63
ENDCHAR
STARTCHAR quoteright
ENCODING 8217
SWIDTH 146 0
DWIDTH 5 0
BBX 4 4 0 9
BITMAP
63
63
03
03
ENDCHAR
STARTCHAR quotesinglbase
ENCODING 8218
SWIDTH 146 0
DWIDTH 5 0
BBX 4 4 0 -4
BITMAP
63
63
03
03
ENDCHAR
STARTCHAR quotedblleft
ENCODING 8220
SWIDTH 297 0
DWIDTH 10 0
BBX 9 4 0 9
BITMAP
601800
601800
631980
631980
ENDCHAR
STARTCHAR quotedblright
ENCODING 8221
SWIDTH 297 0
DWIDTH 10 0
BBX 9 4 0 9
BITMAP
631980
631980
030180
030180
ENDCHAR
STARTCHAR quotedblbase
ENCODING 8222
SWIDTH 297 0
DWIDTH 10 0
BBX 9 4 0 -4
BITMAP
631980
631980
030180
030180
ENDCHAR
STARTCHAR bullet
ENCODING 8226
SWIDTH 302 0
DWIDTH 10 0
BBX 7 6 1 3
BITMAP
0BE0
3428
600C
600C
3428
0BD0
ENDCHAR
STARTCHAR ellipsis
ENCODING 8230
SWIDTH 528 0
DWIDTH 17 0
BBX 15 3 1 0
BITMAP
99088158
990CC198
990CC198
ENDCHAR
STARTCHAR guilsinglleft
ENCODING 8249
SWIDTH 178 0
DWIDTH 6 0
BBX 4 7 1 3
BITMAP
09
78
51
49
A0
2C
04
ENDCHAR
STARTCHAR guilsinglright
ENCODING 8250
SWIDTH 178 0
DWIDTH 6 0
BBX 4 7 1 3
BITMAP
90
28
44
90
19
74
40
ENDCHAR
STARTCHAR fraction
ENCODING 8260
SWIDTH 362 0
DWIDTH 12 0
BBX 11 13 0 0
BITMAP
000258
000724
000960
0018D0
003580
006300
00CA00
028C00
032400
097000
0C9000
258000
634000
ENDCHAR
STARTCHAR uni2074
ENCODING 8308
SWIDTH 204 0
DWIDTH 7 0
BBX 5 6 1 7
BITMAP
2500
2800
9400
A580
0580
A580
ENDCHAR
STARTCHAR Euro
ENCODING 8364
SWIDTH 462 0
DWIDTH 15 0
BBX 14 13 0 0
BITMAP
001BF900
01E40680
034BF850
09740A00
00000000
BFFD0000
00000000
BFFD0000
00000000
09740A00
034BF850
00E40680
001BF900
ENDCHAR
STARTCHAR trademark
ENCODING 8482
SWIDTH 461 0
DWIDTH 15 0
BBX 14 6 0 7
BITMAP
BFD64150
00069650
09063D50
09061450
09060050
09060050
ENDCHAR
STARTCHAR minus
ENCODING 8722
SWIDTH 420 0
DWIDTH 13 0
BBX 11 3 1 5
BITMAP
BFFFFC
000000
BFFFFC
ENDCHAR
STARTCHAR uni2215
ENCODING 8725
SWIDTH 278 0
DWIDTH 9 0
BBX 8 13 1 0
BITMAP
00D9
01CC
0298
0364
0730
0960
0C90
18C0
2580
3240
6300
9600
C900
ENDCHAR
STARTCHAR .notdef
ENCODING -1
SWIDTH 500 0
DWIDTH 16 0
BBX 14 36 1 -7
BITMAP
7FFFFFD0
7AAAAAD0
740001D0
740001D0
740001D0
740001D0
740001D0
740001D0
740001D0
740001D0
740001D0
740001D0
740001D0
740001D0
740001D0
740001D0
740001D0
740001D0
740001D0
740001D0
740001D0
740001D0
740001D0
740001D0
740001D0
740001D0
740001D0
740001D0
740001D0
740001D0
740001D0
740001D0
740001D0
740001D0
7AAAAAD0
7FFFFFD0
ENDCHAR
STARTCHAR NULL
ENCODING -1
SWIDTH 600 0
DWIDTH 19 0
BBX 1 1 0 0
BITMAP
00
ENDCHAR
STARTCHAR acutecomb.case
ENCODING -1
SWIDTH 0 0
DWIDTH 0 0
BBX 7 7 2 27
BITMAP
0144
0324
0970
18D0
3580
A300
C900
ENDCHAR
STARTCHAR ampersand.case
ENCODING -1
SWIDTH 797 0
DWIDTH 26 0
BBX 23 25 1 0
BITMAP
0001BF900000
000AFFED0000
003780774000
00996E4DC000
00D8D1D99000
019980566000
019980966000
018CD1C96000
01897128C000
00D728A24000
00628D1D0000
016497100000
0A0C35800000
28A61CA00900
62828A342880
9628925C6288
C9A034D60A24
CC901C7288A0
C8900628D280
997406897100
635BE8935800
25E40671CA00
0D1BF91CA340
0290059A25C0
006BFA424D60
ENDCHAR
STARTCHAR asciicircum.case
ENCODING -1
SWIDTH 540 0
DWIDTH 17 0
BBX 16 14 1 12
BITMAP
00010000
00030000
000A0000
001C9000
00258000
00635800
00D60D00
028C9600
03243240
097028C0
18900CA0
35800634
63000258
CA0001C9
ENDCHAR
STARTCHAR asciitilde.case
ENCODING -1
SWIDTH 640 0
DWIDTH 20 0
BBX 18 7 1 10
BITMAP
1BFE400010
6401B901A0
1BFE46FE40
6401B901A0
1BFE46FE40
7401B901A0
000006FE40
ENDCHAR
STARTCHAR asterisk.case
ENCODING -1
SWIDTH 482 0
DWIDTH 15 0
BBX 12 11 2 14
BITMAP
008900
008900
508914
6D00E4
900005
6C0079
000000
0900C0
188960
228724
030280
ENDCHAR
STARTCHAR at.case
ENCODING -1
SWIDTH 915 0
DWIDTH 29 0
BBX 28 25 1 0
BITMAP
00001AFFA40000
0002FFFFEB8000
001EA5005AB400
00AB4000019A00
02A80000002680
067006FE960990
0DD02901960330
1980A1BE960264
26418A01D60198
330268009600CC
660330009600CC
660620009600C9
660620009600C8
660330009600CC
6302680096018C
32418A01E34728
2580A1BA71B970
18D02901BD01D0
0D7006BE46FE00
07180000000000
02874000000000
00B0B9006D0000
001E06FE914000
0002E4005A4000
00001AFFA40000
ENDCHAR
STARTCHAR backslash.case
ENCODING -1
SWIDTH 504 0
DWIDTH 16 0
BBX 16 29 0 -2
BITMAP
A6300000
73240000
26580000
198C0000
0CC90000
09960000
06630000
03324000
02698000
019CC000
00C99000
00966000
00633000
00326400
00259800
0018CC00
000C9A00
00096700
00063340
00032580
000258C0
00018C90
0000C960
00009630
00006324
00003258
0000258C
000018C9
00000C96
ENDCHAR
STARTCHAR bar.case
ENCODING -1
SWIDTH 262 0
DWIDTH 8 0
BBX 6 29 1 -2
BITMAP
6660
6660
6660
6660
6660
6660
6660
6660
6660
6660
6660
6660
6660
6660
6660
6660
6660
6660
6660
6660
6660
6660
6660
6660
6660
6660
6660
6660
6660
ENDCHAR
STARTCHAR braceleft.case
ENCODING -1
SWIDTH 504 0
DWIDTH 16 0
BBX 14 29 1 -2
BITMAP
009667E0
00966000
009667E0
00966000
009667E0
00966000
00966000
00966000
00966000
00966000
00966000
00966000
7D966000
00966000
7D966000
00966000
7D966000
00966000
00966000
00966000
00966000
00966000
00966000
00966000
009667E0
00966000
009667E0
00966000
009667E0
ENDCHAR
STARTCHAR braceright.case
ENCODING -1
SWIDTH 506 0
DWIDTH 16 0
BBX 14 29 1 -1
BITMAP
7D566000
00566000
7D566000
00566000
7D566000
00566000
00566000
00566000
00566000
00566000
00566000
00566000
005663E0
00566000
005663E0
00566000
005663E0
00566000
00566000
00566000
00566000
00566000
00566000
00566000
7D566000
00566000
7D566000
00566000
7D566000
ENDCHAR
STARTCHAR bracketleft.case
ENCODING -1
SWIDTH 453 0
DWIDTH 15 0
BBX 12 29 1 -2
BITMAP
6663FF
666000
6663FF
666000
6663FF
666000
666000
666000
666000
666000
666000
666000
666000
666000
666000
666000
666000
666000
666000
666000
666000
666000
666000
666000
6663FF
666000
6663FF
666000
6623FF
ENDCHAR
STARTCHAR bracketright.case
ENCODING -1
SWIDTH 453 0
DWIDTH 15 0
BBX 12 29 1 -1
BITMAP
7FE623
000663
7FE663
000663
7FE663
000663
000663
000663
000663
000663
000663
000663
000663
000663
000663
000663
000663
000663
000663
000663
000663
000663
000663
000663
7FE663
000663
7FE663
000663
7FE663
ENDCHAR
STARTCHAR brokenbar.case
ENCODING -1
SWIDTH 262 0
DWIDTH 8 0
BBX 6 29 1 0
BITMAP
6660
6660
6660
6660
6660
6660
6660
6660
6660
6660
6660
6660
6660
0000
0000
0000
6660
6660
6660
6660
6660
6660
6660
6660
6660
6660
6660
6660
6660
ENDCHAR
STARTCHAR bullet.case
ENCODING -1
SWIDTH 503 0
DWIDTH 16 0
BBX 14 13 1 6
BITMAP
006F9000
03906D00
0D6F9700
25D07580
33401CC0
66000990
66000990
66000990
33401CC0
25D07580
0D6F9700
03906D00
006F9000
ENDCHAR
STARTCHAR uni0327.case
ENCODING -1
SWIDTH 0 0
DWIDTH 0 0
BBX 7 8 2 -7
BITMAP
0500
0D00
1800
3FE0
6424
0018
9064
6F90
ENDCHAR
STARTCHAR cent.case
ENCODING -1
SWIDTH 577 0
DWIDTH 18 0
BBX 16 29 1 -2
BITMAP
0000CC00
0000CC00
0000CC00
0000CC00
0000CC00
0006FE90
00790068
0286FE47
062901B4
1CA1BE54
258A01C0
32680000
63300000
66600000
66600000
63300000
32680000
258A01C0
1CA1BE54
062901B4
0286BE47
00790068
0006FE90
00000000
0000CC00
0000CC00
0000CC00
0000CC00
0000CC00
ENDCHAR
STARTCHAR uni0302.case
ENCODING -1
SWIDTH 0 0
DWIDTH 0 0
BBX 13 7 2 27
BITMAP
00510000
01CA0000
03586000
09712400
28D28D00
72809700
D6003180
ENDCHAR
STARTCHAR colon.case
ENCODING -1
SWIDTH 262 0
DWIDTH 8 0
BBX 6 17 1 0
BITMAP
6660
6660
6660
6660
6660
0000
0000
0000
0000
0000
0000
0000
6660
6660
6660
6660
6660
ENDCHAR
STARTCHAR comma.case
ENCODING -1
SWIDTH 338 0
DWIDTH 11 0
BBX 8 8 1 -3
BITMAP
0633
0966
0C96
0CC9
198C
2598
3264
6330
ENDCHAR
STARTCHAR copyright.case
ENCODING -1
SWIDTH 895 0
DWIDTH 29 0
BBX 27 25 1 0
BITMAP
00005BFE900000
0006FFFFFE0000
002EE4016AD000
00EA000007A800
0374000000AA00
099006FE402640
19802901B40DC0
3700A1BE1806A0
66018A41C00330
99032400000264
C9023000000268
CC063000000198
CC033000000198
C9032400000258
C9018A41C00268
9600A1BE180324
63002901B40A30
318006FE400CA0
189000000024C0
0934000000A240
034A0000074A00
01E1E401692800
00291AFE91D000
0006A4006E0000
00005BFE900000
ENDCHAR
STARTCHAR currency.case
ENCODING -1
SWIDTH 676 0
DWIDTH 22 0
BBX 20 19 1 1
BITMAP
0280000200
04A0000910
0A280024D0
6284001348
2891BE4934
0A0E41A0D0
0134BE2840
0063428C00
009A00D900
0099009900
009A00D900
0063428C00
0534BE2840
1D0E41A060
75C1BE471C
87140021C5
1C70001C70
01C0000740
0200000140
ENDCHAR
STARTCHAR degree.case
ENCODING -1
SWIDTH 413 0
DWIDTH 13 0
BBX 12 11 1 14
BITMAP
02FE40
1D01D0
75B924
97429C
C900CC
CC00C9
C900CC
97465C
35B934
1D01D0
02FE40
ENDCHAR
STARTCHAR uni0308.case
ENCODING -1
SWIDTH 0 0
DWIDTH 0 0
BBX 16 6 1 28
BITMAP
1BD007E4
3424181C
60182409
60182409
34241D1C
0BD006E4
ENDCHAR
STARTCHAR divide.case
ENCODING -1
SWIDTH 618 0
DWIDTH 20 0
BBX 17 17 1 4
BITMAP
0000B80000
0002890000
0002460000
0002890000
0000B80000
0000000000
7FFFFFFFC0
0000000000
7FFFFFFFC0
0000000000
7FFFFFFFC0
0000000000
0000B80000
0002890000
0002460000
0002890000
0000B80000
ENDCHAR
STARTCHAR uni2215.case
ENCODING -1
SWIDTH 483 0
DWIDTH 15 0
BBX 15 25 0 0
BITMAP
00006324
00009630
0000C960
00018C90
000258C0
00032580
00063240
00096300
000C9A00
0018CD00
00259C00
00326400
00633000
00966000
00C99000
018CC000
02698000
03364000
06630000
09960000
0CC90000
198C0000
26580000
73240000
A6300000
ENDCHAR
STARTCHAR dollar.case
ENCODING -1
SWIDTH 660 0
DWIDTH 21 0
BBX 19 29 1 -2
BITMAP
0000CC0000
0000CC0000
0004CC4000
00B8CCB900
0740CC0740
1868CCB4D0
31D0CC1D30
9728CC9368
8960CC2584
C990CC1400
9974480000
A75B900000
35E06E4000
1D1E41B800
0291BA4B40
006E41A490
0001B91A24
000006E258
0000C828CC
0040CC0CC8
48A0CC18CC
9A28CCA28C
6284CC4A24
28B4CC7860
0A04CC4280
01E4CC6D00
0014CC5000
0000CC0000
0000CC0000
ENDCHAR
STARTCHAR eight.case
ENCODING -1
SWIDTH 561 0
DWIDTH 18 0
BBX 16 25 1 0
BITMAP
006FE900
02AFFA80
1EE01AB0
375BE198
66341C99
99900966
CC900662
CC900663
C9740966
971B90C6
61D0690C
282E4684
0A41B870
31A4075C
961691C9
C96018A6
CC900962
CC900663
C9900966
96341C96
635BE18C
25E01A28
0D1BE4A0
02900680
006FF900
ENDCHAR
STARTCHAR ellipsis.case
ENCODING -1
SWIDTH 766 0
DWIDTH 25 0
BBX 22 5 1 0
BITMAP
666066306230
666066306230
666066306230
666066306230
666066306230
ENDCHAR
STARTCHAR emdash.case
ENCODING -1
SWIDTH 790 0
DWIDTH 25 0
BBX 23 5 1 10
BITMAP
7FFFFFFFFFF8
000000000000
7FFFFFFFFFF8
000000000000
7FFFFFFFFFF8
ENDCHAR
STARTCHAR endash.case
ENCODING -1
SWIDTH 721 0
DWIDTH 23 0
BBX 21 5 1 10
BITMAP
7FFFFFFFFF40
000000000000
7FFFFFFFFF40
000000000000
7FFFFFFFFF40
ENDCHAR
STARTCHAR equal.case
ENCODING -1
SWIDTH 618 0
DWIDTH 20 0
BBX 17 14 1 6
BITMAP
7FFFFFFFC0
0000000000
7FFFFFFFC0
0000000000
7FFFFFFFC0
0000000000
0000000000
0000000000
0000000000
7FFFFFFFC0
0000000000
7FFFFFFFC0
0000000000
7FFFFFFFC0
ENDCHAR
STARTCHAR Euro.case
ENCODING -1
SWIDTH 767 0
DWIDTH 25 0
BBX 24 25 0 0
BITMAP
000006BFE900
00007AFFEAE0
0002AE401A5D
000DA1BFA190
00268B401D10
00A628000240
00CC60000000
0198C0000000
000000000000
BFFFFFFF0000
000000000000
000000000000
BFFFFFFF0000
BFFFFFFF0000
000000000000
015880000000
018C90000000
00C930000000
00635C000740
0025C7906D20
001D74AF91D0
00074A401A4D
0001E1AFA474
00002E401B80
000001BFE400
ENDCHAR
STARTCHAR exclam.case
ENCODING -1
SWIDTH 262 0
DWIDTH 8 0
BBX 6 25 1 0
BITMAP
6660
6660
6660
6660
6660
6660
6660
6660
6660
6660
6660
6660
6660
6660
6660
6660
6660
6660
0110
0000
6660
6660
6660
6660
6660
ENDCHAR
STARTCHAR exclamdown.case
ENCODING -1
SWIDTH 262 0
DWIDTH 8 0
BBX 6 25 1 -5
BITMAP
6660
6660
6660
6660
6660
0000
0110
6660
6660
6660
6660
6660
6660
6660
6660
6660
6660
6660
6660
6660
6660
6660
6660
6660
6660
ENDCHAR
STARTCHAR five.case
ENCODING -1
SWIDTH 558 0
DWIDTH 18 0
BBX 16 25 1 0
BITMAP
7FFFFFFD
7FFFFFFD
00000000
7FFFFFFD
00000000
00000000
66300000
66300000
66300000
6633F900
66300780
663000A0
6633E428
6633FB4C
66301DC9
00000996
00000663
88800663
C9900966
96341C9A
635BE18C
25E01B28
0D1BE4A0
02900780
006FF900
ENDCHAR
STARTCHAR four.case
ENCODING -1
SWIDTH 585 0
DWIDTH 19 0
BBX 17 25 1 0
BITMAP
000258C000
0003258000
0009630000
000C960000
00258C0000
0032580000
0096300000
00C9600000
0258C00000
0325800000
0963000000
0C96000000
258C662000
3258662000
5220662000
0000662000
FFFD662380
0000662000
FFFD662380
0000662000
FFFD662380
0000662000
0000662000
0000662000
0000662000
ENDCHAR
STARTCHAR uni2074.case
ENCODING -1
SWIDTH 312 0
DWIDTH 10 0
BBX 8 12 1 13
BITMAP
0324
0960
0C90
29C0
3240
A300
0033
FE33
0033
FE33
0033
0033
ENDCHAR
STARTCHAR fraction.case
ENCODING -1
SWIDTH 655 0
DWIDTH 21 0
BBX 17 25 2 0
BITMAP
00000018C0
0000003280
000000A700
000000C900
0000025800
0000063400
0000096000
000018C000
0000328000
0000A70000
0000C90000
0002580000
0006340000
0009600000
0018C00000
0032800000
00A3000000
00C9000000
0258000000
0634000000
0960000000
18C0000000
3280000000
A300000000
C900000000
ENDCHAR
STARTCHAR gravecomb.case
ENCODING -1
SWIDTH 0 0
DWIDTH 0 0
BBX 7 7 2 27
BITMAP
4500
9600
7240
29C0
0CA0
0634
0258
ENDCHAR
STARTCHAR greater.case
ENCODING -1
SWIDTH 677 0
DWIDTH 22 0
BBX 19 22 1 2
BITMAP
9000000000
2D00000000
4680000000
7478000000
0B4B400000
A1A0A40000
2D1E1E0000
02D2D1E000
0068292D00
0007878690
0000B47878
00011A4B44
000A41E140
00B4741800
0786868000
68292D0000
92D1E00000
1E1A000000
A4B4000000
4B40000000
7800000000
9000000000
ENDCHAR
STARTCHAR guillemotleft.case
ENCODING -1
SWIDTH 666 0
DWIDTH 21 0
BBX 19 17 1 4
BITMAP
0002000018
001D0000A0
00A1000744
0787002D28
0D2800A1D0
51D2410A18
744A028074
0A14007480
61D0024A00
2D7801E2D0
474B012874
74A1028744
1E1D00B4A0
0297001E28
0074000280
000A000074
0001000004
ENDCHAR
STARTCHAR guillemotright.case
ENCODING -1
SWIDTH 666 0
DWIDTH 21 0
BBX 19 17 1 4
BITMAP
6000024000
2D0001E000
4740012800
74A0028740
1E1800B490
5281021D04
284B01D074
05780052D0
01D2400A18
0A1D0074A0
74B5028784
5787012D28
1D2800A1D0
61D0024A00
0B40007800
280001D000
5000020000
ENDCHAR
STARTCHAR guilsinglleft.case
ENCODING -1
SWIDTH 338 0
DWIDTH 11 0
BBX 9 17 1 4
BITMAP
000200
001D00
00A100
078700
0D2800
51D240
744A00
0A1400
61D000
2D7800
474B00
74A100
1E1D00
029700
007400
000A00
000100
ENDCHAR
STARTCHAR guilsinglright.case
ENCODING -1
SWIDTH 338 0
DWIDTH 11 0
BBX 9 17 1 4
BITMAP
600000
2D0000
474000
74A000
1E1800
528100
284B00
057800
01D240
0A1D00
74B500
578700
1D2800
61D000
0B4000
280000
500000
ENDCHAR
STARTCHAR hyphen.case
ENCODING -1
SWIDTH 445 0
DWIDTH 14 0
BBX 12 5 1 10
BITMAP
7FFFFE
000000
7FFFFE
000000
7FFFFE
ENDCHAR
STARTCHAR less.case
ENCODING -1
SWIDTH 677 0
DWIDTH 22 0
BBX 20 22 1 2
BITMAP
0000000005
0000000068
00000002D0
0000001D1D
000001E1A4
00001A4B45
0000B47478
0002878690
0024292D00
011E01E000
12D1E10000
68292D0000
0787869000
00B4747800
000A4B4740
0001E1A4B4
00001D1E19
000002D2D0
000000692D
0000000785
00000000B4
0000000009
ENDCHAR
STARTCHAR logicalnot.case
ENCODING -1
SWIDTH 618 0
DWIDTH 20 0
BBX 18 11 1 4
BITMAP
7FFFFFFFC0
0000000000
7FFFFFFFC0
0000000000
7FFFFFFFC0
0000000000
000000CC90
000000CC90
000000CC90
000000CC90
000000CC90
ENDCHAR
STARTCHAR uni00B5.case
ENCODING -1
SWIDTH 792 0
DWIDTH 25 0
BBX 24 32 1 -7
BITMAP
666000066300
666000066300
666000066300
666000066300
666000066300
666000066300
666000066300
666000066300
666000066300
666000066300
666000066300
666000066300
666000066300
666000066300
666000066300
666000066300
666000066200
666000096600
6660001C9900
666240758CA0
6661BF87281A
666140687190
6661BF92C46E
6661005E0790
6662FFA4006E
666000000000
666000000000
666000000000
666000000000
666000000000
666000000000
666000000000
ENDCHAR
STARTCHAR minus.case
ENCODING -1
SWIDTH 618 0
DWIDTH 20 0
BBX 17 5 1 10
BITMAP
7FFFFFFFC0
0000000000
7FFFFFFFC0
0000000000
7FFFFFFFC0
ENDCHAR
STARTCHAR multiply.case
ENCODING -1
SWIDTH 580 0
DWIDTH 19 0
BBX 16 15 1 5
BITMAP
01800340
09600D20
175834D0
75D0D34D
1D534D34
070D34D0
0034D340
00D34D00
034D3480
0D34D160
34D34758
134D25D5
09341D70
00D00740
00400140
ENDCHAR
STARTCHAR nine.case
ENCODING -1
SWIDTH 558 0
DWIDTH 18 0
BBX 16 25 1 1
BITMAP
006FE900
02900680
0D2BE470
25D01A18
635BE189
99341C96
C8900966
CC900663
C8900663
C9900663
93740663
61EFD663
242FD663
0D000663
02900663
006FE663
00000663
00000663
84400666
C8900966
99741C99
775BE198
19D01AB0
07AFFA80
006FE900
ENDCHAR
STARTCHAR numbersign.case
ENCODING -1
SWIDTH 776 0
DWIDTH 25 0
BBX 23 25 1 0
BITMAP
000CCC026640
00188C032640
001998033200
002598063300
002654000000
0F3266FFFFF4
003320000000
0E6332FFFFF4
006630000000
0D5663FFFFF4
009960000000
009990155800
008850255800
000000266400
7FFFFF3225C0
000000332000
7FFFFE6332C0
000000663000
7FFFFD9663C0
000000996000
023300899000
066300CC9000
056600CCC000
09960188C000
099901998000
ENDCHAR
STARTCHAR one.case
ENCODING -1
SWIDTH 378 0
DWIDTH 12 0
BBX 11 25 0 0
BITMAP
7F2658
002658
7F2658
002658
7F2658
002658
002658
002658
002658
002658
002658
002658
002658
002658
002658
002658
002658
002658
002658
002658
002658
002658
002658
002658
002658
ENDCHAR
STARTCHAR onehalf.case
ENCODING -1
SWIDTH 735 0
DWIDTH 24 0
BBX 21 25 1 0
BITMAP
7CC90000C900
00C900025800
7CC900063400
00C900096000
00C90018C000
00C900328000
00C900A70000
00C900C90000
00C902580000
00C906340000
008909600000
000018C00000
000032800000
0000A7000000
0000C902F900
000258090740
00063418B580
0009601558C0
0018C0002580
00328001D340
00A300075D00
00C900040000
0258002FFF80
063400000000
0960002FFF80
ENDCHAR
STARTCHAR onequarter.case
ENCODING -1
SWIDTH 722 0
DWIDTH 23 0
BBX 21 26 1 -1
BITMAP
7CC90000C900
00C900025800
7CC900063400
00C900096000
00C90018C000
00C900328000
00C900A70000
00C900C90000
00C902580000
00C906340000
008909600000
000018C00000
000032800000
0000A7000000
0000C9025800
000258032400
0006340A6000
0009600C9000
0018C029C000
003280324000
00A300002580
00C900BF6580
025800002580
063400BF6580
096000002580
000000002580
ENDCHAR
STARTCHAR uni00B9.case
ENCODING -1
SWIDTH 306 0
DWIDTH 10 0
BBX 8 11 1 14
BITMAP
7CC9
00C9
7CC9
00C9
00C9
00C9
00C9
00C9
00C9
00C9
0089
ENDCHAR
STARTCHAR ordfeminine.case
ENCODING -1
SWIDTH 456 0
DWIDTH 15 0
BBX 12 11 1 14
BITMAP
006700
00DA40
018C80
025C90
032960
062630
095364
0CFF98
1980C8
36FFD5
630062
ENDCHAR
STARTCHAR ordmasculine.case
ENCODING -1
SWIDTH 489 0
DWIDTH 16 0
BBX 13 12 1 13
BITMAP
00BF9000
07406800
1C6F8600
25907240
630018C0
66000CC0
66000CC0
63001980
25907240
1C6F8600
07806800
00AF9000
ENDCHAR
STARTCHAR paragraph.case
ENCODING -1
SWIDTH 893 0
DWIDTH 29 0
BBX 26 25 1 0
BITMAP
006FFFFFFFFFF0
07900000000000
186FFFFFFFFFF0
72900000000000
961FFFFFFFFFF0
CCA00000000000
8CC00009960230
8CC00009960230
CCA00009960230
961FFFD9960230
72900009960230
186FFFD9960230
07900009960230
006FFFD9960230
00000009960230
00000009960230
00000009960230
00000009960230
00000009960230
00000009960230
00000009960230
00000009960230
00000009960230
00000009960230
00000009960230
ENDCHAR
STARTCHAR parenleft.case
ENCODING -1
SWIDTH 290 0
DWIDTH 9 0
BBX 9 29 1 -2
BITMAP
019980
032640
066300
0D9900
1CCC00
299800
266400
333000
663000
966000
995000
C99000
C99000
CC9000
CC8000
CC9000
C99000
C99000
995000
966000
663000
333000
266400
299800
1CCC00
099900
066300
032640
0199C0
ENDCHAR
STARTCHAR parenright.case
ENCODING -1
SWIDTH 290 0
DWIDTH 9 0
BBX 10 29 -1 -1
BITMAP
A66000
333400
269800
0CCC00
099900
066600
033300
022640
026580
019980
018CC0
00CCC0
00CC90
00C890
00C990
00C890
00CC90
00CCC0
018CC0
019980
026580
022640
033300
066600
099900
0CCC00
259800
333400
A66000
ENDCHAR
STARTCHAR percent.case
ENCODING -1
SWIDTH 827 0
DWIDTH 26 0
BBX 25 25 1 0
BITMAP
06FE4000096240
1EFEA00018D600
7742A400329C00
9900CC00972400
CC00C9018DA000
C900C90329C000
97464C09724000
71B924189A0000
1D01A0319C0000
02FE4093340000
00000189A00000
00000359C00000
00018A30000000
00031C90000000
000A35806F9000
001CA303906800
0035C90D2F8A00
00A25818D0A300
00C63426802640
025CA026402640
0625C026802640
0C634018D0A300
28CA000D2F8A00
725C0003806800
D62400006F9000
ENDCHAR
STARTCHAR period.case
ENCODING -1
SWIDTH 262 0
DWIDTH 8 0
BBX 6 5 1 0
BITMAP
6660
6660
6660
6660
6660
ENDCHAR
STARTCHAR periodcentered.case
ENCODING -1
SWIDTH 262 0
DWIDTH 8 0
BBX 6 5 1 10
BITMAP
6660
6660
6660
6660
6660
ENDCHAR
STARTCHAR plus.case
ENCODING -1
SWIDTH 616 0
DWIDTH 20 0
BBX 17 17 1 4
BITMAP
0004550000
0009990000
0009990000
0009990000
0009990000
0009990000
7FC9997FC0
0009990000
7FC9997FC0
0009990000
7FC9997FC0
0009990000
0009990000
0009990000
0009990000
0009990000
0004450000
ENDCHAR
STARTCHAR plusminus.case
ENCODING -1
SWIDTH 618 0
DWIDTH 20 0
BBX 17 23 1 0
BITMAP
0004550000
0009990000
0009990000
0009990000
0009990000
0009990000
7FC9997FC0
0009990000
7FC9997FC0
0009990000
7FC9997FC0
0009990000
0009990000
0009990000
0009990000
0009990000
0004450000
0000000000
7FFFFFFFC0
0000000000
7FFFFFFFC0
0000000000
7FFFFFFFC0
ENDCHAR
STARTCHAR question.case
ENCODING -1
SWIDTH 598 0
DWIDTH 19 0
BBX 17 25 1 0
BITMAP
001BF90000
02EBFED000
0AB406A800
19C7F89900
32590A3700
6330032640
6620026640
0000026540
0000062640
0000286240
0000A1C600
00028A0900
0006282400
000961D000
000C960000
000CC90000
000CCC0000
000CCC0000
0004440000
0000000000
000CC80000
000CC80000
000CC80000
000CC80000
000CC80000
ENDCHAR
STARTCHAR questiondown.case
ENCODING -1
SWIDTH 598 0
DWIDTH 19 0
BBX 17 25 1 -5
BITMAP
000CC90000
000CC90000
000CC90000
000CC90000
000CC90000
0000000000
0004400000
000CC90000
000CC90000
000CC80000
0025CC0000
01D2580000
074A240000
0C28600000
24A2800000
328A000000
6328000000
6630000000
6630025540
3330032640
26590A3300
1DC7F89A00
06B406A800
01EFFEE000
001BFA4000
ENDCHAR
STARTCHAR quotedbl.case
ENCODING -1
SWIDTH 464 0
DWIDTH 15 0
BBX 14 8 0 17
BITMAP
63302330
63302330
63302330
63302330
63302330
63302330
63302330
63302330
ENDCHAR
STARTCHAR quotedblbase.case
ENCODING -1
SWIDTH 464 0
DWIDTH 15 0
BBX 14 8 0 -3
BITMAP
63302330
63302330
63302330
63302330
63302330
03300330
03300330
03300330
ENDCHAR
STARTCHAR quotedblleft.case
ENCODING -1
SWIDTH 464 0
DWIDTH 15 0
BBX 14 8 0 18
BITMAP
63002300
63002300
63002300
63302330
63302330
63302330
63302330
63302330
ENDCHAR
STARTCHAR quotedblright.case
ENCODING -1
SWIDTH 464 0
DWIDTH 15 0
BBX 14 8 0 17
BITMAP
63302330
63302330
63302330
63302330
63302330
03300330
03300330
03300330
ENDCHAR
STARTCHAR quoteleft.case
ENCODING -1
SWIDTH 212 0
DWIDTH 7 0
BBX 6 8 0 18
BITMAP
6300
6300
6300
6330
6330
6330
6330
6330
ENDCHAR
STARTCHAR quoteright.case
ENCODING -1
SWIDTH 212 0
DWIDTH 7 0
BBX 6 8 0 17
BITMAP
6330
6330
6330
6330
6330
0330
0330
0330
ENDCHAR
STARTCHAR quotesinglbase.case
ENCODING -1
SWIDTH 212 0
DWIDTH 7 0
BBX 6 8 0 -3
BITMAP
6330
6330
6330
6330
6330
0330
0330
0330
ENDCHAR
STARTCHAR quotesingle.case
ENCODING -1
SWIDTH 212 0
DWIDTH 7 0
BBX 6 8 0 17
BITMAP
6330
6330
6330
6330
6330
6330
6330
6330
ENDCHAR
STARTCHAR registered.case
ENCODING -1
SWIDTH 895 0
DWIDTH 29 0
BBX 27 25 1 0
BITMAP
00005BFE900000
0006FFFFFE0000
002EE4016AD000
00EA000007A800
0374000000AA00
09900000002640
19809BFF900DC0
370099006806A0
66009BFF8C0330
99009900C90264
C9009BFF8C0268
CC009900680198
CC009BFFD00198
C9009918C00258
C9009909A00268
96009906300324
63009903240A30
31809902580CA0
189000000024C0
0934000000A240
034A0000074A00
01E1E401692800
00291AFE91D000
0006A4006E0000
00005BFE900000
ENDCHAR
STARTCHAR uni030A.case
ENCODING -1
SWIDTH 0 0
DWIDTH 0 0
BBX 8 7 1 27
BITMAP
0BE0
2828
600C
6009
700C
2828
0BE0
ENDCHAR
STARTCHAR section.case
ENCODING -1
SWIDTH 645 0
DWIDTH 21 0
BBX 19 32 1 -4
BITMAP
001AFF9000
00B5006E00
02800001C0
0906FF9460
0C7BFFAA24
18DD007540
198C000000
1987900000
0CD06E4000
067401B800
029B940A00
00795B9280
0206F96490
0D60068D60
25C6409660
3258006660
3320009660
33240A5C90
324A406580
28D1BE4200
0D2901B400
0786B90A00
00B906E180
0006E42890
00001B8960
0000009660
0864019660
961BFE4D90
71E401B5C0
1D1AFE4740
06D4016900
005BFE9000
ENDCHAR
STARTCHAR semicolon.case
ENCODING -1
SWIDTH 338 0
DWIDTH 11 0
BBX 9 20 1 -3
BITMAP
033240
033240
033240
033240
033240
000000
000000
000000
000000
000000
000000
000000
063300
096600
0C9600
0CC900
198C00
259800
326400
633000
ENDCHAR
STARTCHAR seven.case
ENCODING -1
SWIDTH 505 0
DWIDTH 16 0
BBX 14 25 1 0
BITMAP
FFFFFFF0
00000000
FFFFFFF0
00000000
FFFFFFF0
00000000
00008990
00018CC0
000198C0
00026580
00033240
00066300
00096600
000C9900
0018CC00
00258C00
00265800
00332400
00663000
00966000
00C99000
018CC000
02598000
02658000
03324000
ENDCHAR
STARTCHAR six.case
ENCODING -1
SWIDTH 558 0
DWIDTH 18 0
BBX 16 25 1 0
BITMAP
006FF900
02AFFAD0
0EE01B74
375BE1DC
66341C99
99900966
CC900511
CC800000
CC800000
CC8BF900
CC800780
CC8000A0
CC8BE428
CC8BFB4C
CC801DC9
CC800996
CC800663
CC900663
C9900966
96341C9A
635BE18C
35E01B28
1D1BE4A0
02900780
006FF900
ENDCHAR
STARTCHAR slash.case
ENCODING -1
SWIDTH 504 0
DWIDTH 16 0
BBX 16 29 0 -2
BITMAP
00000C96
000018C9
0000258C
00003258
00006324
00009630
0000C960
00018C90
000258C0
00032580
00063340
00096700
000C9A00
0018CC00
00259800
00326400
00633000
00966000
00C99000
018CC000
02698000
03324000
06630000
09960000
0CC90000
198C0000
26580000
73240000
A6300000
ENDCHAR
STARTCHAR uni00AD.case
ENCODING -1
SWIDTH 445 0
DWIDTH 14 0
BBX 12 5 1 10
BITMAP
7FFFFE
000000
7FFFFE
000000
7FFFFE
ENDCHAR
STARTCHAR sterling.case
ENCODING -1
SWIDTH 618 0
DWIDTH 20 0
BBX 19 25 0 0
BITMAP
0006FF9000
00BBFFAE00
02A90069D0
0AA1BE4A70
1DCA01A258
2998002584
2598001400
198C000000
0895000000
0000000000
7FFFFFF400
0000000000
7FFFFFF400
0000000000
7FFFFFF400
0000000000
0725800000
18A6000000
0000000000
0000000000
BFFFFFFFF8
0000000000
BFFFFFFFF8
0000000000
BFFFFFFFF8
ENDCHAR
STARTCHAR three.case
ENCODING -1
SWIDTH 558 0
DWIDTH 18 0
BBX 16 25 1 0
BITMAP
006FF900
07AFFA90
19D01B74
775BE1DC
99741C99
C8900966
84400663
00000663
00000496
0000F909
00000784
000000A0
0000E428
0000FB4C
00001DC9
00000996
00000663
CC900663
C9900966
96341C9A
635BE18C
24E41B28
0D1BE4A0
02900780
006FF900
ENDCHAR
STARTCHAR threequarters.case
ENCODING -1
SWIDTH 722 0
DWIDTH 23 0
BBX 21 26 1 -1
BITMAP
0BE40000C900
281D00025800
62D600063400
512300096000
00020018C000
00A400328000
001D00A70000
009700C90000
527302580000
72D706340000
281D09600000
0BE418C00000
000032800000
0000A7000000
0000C9025800
000258032400
0006340A6000
0009600C9000
0018C029C000
003280324000
00A300002580
00C900BF6580
025800002580
063400BF6580
096000002580
000000002580
ENDCHAR
STARTCHAR uni00B3.case
ENCODING -1
SWIDTH 332 0
DWIDTH 11 0
BBX 8 12 1 13
BITMAP
0BE4
281D
62D6
5123
0002
00A4
001D
0097
5273
72D7
281D
0BE4
ENDCHAR
STARTCHAR tildecomb.case
ENCODING -1
SWIDTH 0 0
DWIDTH 0 0
BBX 13 4 1 27
BITMAP
0BE00180
28280180
70074700
5001B900
ENDCHAR
STARTCHAR trademark.case
ENCODING -1
SWIDTH 850 0
DWIDTH 27 0
BBX 26 13 0 13
BITMAP
BFFFF897000A30
00000097801E30
BFFFF896903630
00CC009634D630
00CC00975E8E30
00CC0096D72A30
00CC009672E230
00CC0096288230
00CC00960A0230
00CC0096010230
00CC0096000230
00CC0096000230
00CC0096000230
ENDCHAR
STARTCHAR two.case
ENCODING -1
SWIDTH 558 0
DWIDTH 18 0
BBX 16 25 1 0
BITMAP
006FE900
07AFFA80
1DE01AB0
375BE198
96341C99
C9900966
88800666
00000663
00000962
000028D6
00006289
0001C618
00071C70
001D74D0
0035D340
00D34D00
024D3400
0A24D000
18A24000
00000000
7FFFFFFC
00000000
7FFFFFFC
00000000
7FFFFFFC
ENDCHAR
STARTCHAR uni00B2.case
ENCODING -1
SWIDTH 339 0
DWIDTH 11 0
BBX 9 11 1 14
BITMAP
07F400
280A00
32E300
223240
00A300
028900
0D2800
000000
7FFF00
000000
7FFF00
ENDCHAR
STARTCHAR underscore.case
ENCODING -1
SWIDTH 667 0
DWIDTH 21 0
BBX 19 5 1 0
BITMAP
7FFFFFFFF8
0000000000
7FFFFFFFF8
0000000000
7FFFFFFFF8
ENDCHAR
STARTCHAR yen.case
ENCODING -1
SWIDTH 769 0
DWIDTH 25 0
BBX 24 25 0 0
BITMAP
625C00001C97
28CA0000358D
0D6340009728
0725C0018970
028C600328D0
009624097240
00728C28D600
0018D6228C00
000972472400
000328D56000
00018961C000
000097284000
000021480000
000000000000
0000188C0000
003F988CFE00
0000188C0000
003F988CFE00
0000188C0000
003F988CFE00
0000188C0000
0000188C0000
0000188C0000
0000188C0000
0000188C0000
ENDCHAR
STARTCHAR zero.case
ENCODING -1
SWIDTH 558 0
DWIDTH 18 0
BBX 16 25 1 0
BITMAP
006FE900
02AFFF80
0EE01BB0
375BE198
66341C99
99900966
CC900666
CC800663
CC800663
CC800663
CC800663
CC800663
CC800663
CC800663
CC800663
CC800663
CC800663
CC900663
C9900966
96341C96
635BE189
35E01A18
1D1BE470
02900680
006FE900
ENDCHAR
ENDFONT
